<?xml version="1.0"?>
<!--Icons from directory ""-->
<svg xmlns="http://www.w3.org/2000/svg" width="300" height="714" viewBox="0 0 300 714"><svg xmlns:xlink="http://www.w3.org/1999/xlink" xml:space="preserve" height="119" width="300" version="1.1" y="0" x="0px" viewBox="0 0 480 190" enable-background="new 0 0 480 190" id="amount"><g id="amount-&#x428;&#x430;&#x440;_1">	<path d="m310.19 87.57l-45.739-45.738-23.245-23.246c-0.375-0.375-0.885-0.586-1.414-0.586s-1.039 0.211-1.414 0.586l-23.244 23.246-45.74 45.738c-0.375 0.375-0.586 0.885-0.586 1.414 0 0.531 0.211 1.039 0.586 1.414l23.245 23.246c0.375 0.375 0.884 0.586 1.414 0.586s1.039-0.211 1.414-0.586l44.325-44.326 44.326 44.326c0.375 0.375 0.884 0.586 1.414 0.586 0.529 0 1.039-0.211 1.414-0.586l23.244-23.246c0.8-0.777 0.8-2.042 0.02-2.824zm-70.4-67.57l4.391 4.391-4.447 4.445-4.389-4.389 4.45-4.447zm45.74 92.23l-45.74-45.74-45.739 45.74-23.245-23.246 4.298-4.297 4.75 4.748c0.195 0.195 0.451 0.293 0.707 0.293s0.512-0.098 0.707-0.293c0.391-0.391 0.391-1.023 0-1.414l-4.75-4.748 4.469-4.469 4.75 4.748c0.195 0.194 0.451 0.293 0.707 0.293 0.257 0 0.513-0.099 0.707-0.293 0.392-0.392 0.392-1.023 0-1.414l-4.749-4.748 4.47-4.469 11.131 11.131c0.195 0.194 0.451 0.293 0.707 0.293s0.512-0.099 0.707-0.293c0.391-0.392 0.391-1.023 0-1.414l-11.132-11.131 4.468-4.469 4.749 4.75c0.194 0.195 0.451 0.293 0.707 0.293s0.512-0.098 0.707-0.293c0.391-0.391 0.391-1.023 0-1.414l-4.749-4.75 4.469-4.469 4.749 4.75c0.195 0.195 0.451 0.293 0.707 0.293s0.512-0.098 0.707-0.293c0.391-0.391 0.391-1.023 0-1.414l-4.749-4.75 4.469-4.469 11.131 11.131c0.195 0.195 0.451 0.293 0.707 0.293s0.513-0.098 0.707-0.293c0.392-0.391 0.392-1.023 0-1.414l-11.131-11.131 4.469-4.469 4.748 4.75c0.195 0.195 0.451 0.293 0.707 0.293s0.513-0.098 0.707-0.293c0.392-0.392 0.392-1.023 0-1.414l-4.748-4.75 4.47-4.469 4.749 4.75c0.194 0.194 0.45 0.293 0.707 0.293 0.256 0 0.512-0.099 0.707-0.293 0.391-0.392 0.391-1.023 0-1.414l-4.749-4.75 4.468-4.468 11.13 11.132c0.195 0.194 0.451 0.293 0.707 0.293s0.512-0.099 0.707-0.293c0.391-0.392 0.391-1.023 0-1.414l-11.13-11.131 4.468-4.47 4.749 4.75c0.195 0.195 0.451 0.293 0.707 0.293 0.257 0 0.513-0.098 0.707-0.293 0.392-0.392 0.392-1.022 0-1.414l-4.749-4.75 4.469-4.469 4.75 4.748c0.194 0.194 0.45 0.293 0.707 0.293 0.152 0 0.301-0.048 0.441-0.117 0.102 0.033 0.204 0.062 0.311 0.062 0.256 0 0.512-0.099 0.707-0.293l4.748-4.748 4.469 4.469-4.75 4.748c-0.391 0.391-0.391 1.023 0 1.414 0.195 0.195 0.451 0.293 0.707 0.293s0.513-0.098 0.707-0.293l4.75-4.748 4.47 4.469-11.134 11.131c-0.392 0.391-0.392 1.023 0 1.414 0.194 0.195 0.451 0.293 0.707 0.293s0.512-0.098 0.707-0.293l11.04-11.13 4.469 4.467-4.749 4.75c-0.392 0.391-0.392 1.023 0 1.414 0.194 0.195 0.45 0.293 0.707 0.293 0.256 0 0.512-0.098 0.707-0.293l4.749-4.75 4.469 4.469-4.749 4.75c-0.392 0.391-0.392 1.023 0 1.414 0.195 0.195 0.451 0.293 0.707 0.293s0.513-0.098 0.707-0.293l4.749-4.75 4.469 4.469-11.132 11.131c-0.392 0.392-0.392 1.023 0 1.414 0.195 0.195 0.451 0.293 0.707 0.293s0.513-0.098 0.707-0.293l11.131-11.131 4.47 4.469-4.75 4.748c-0.391 0.392-0.391 1.023 0 1.414 0.195 0.195 0.451 0.293 0.707 0.293s0.512-0.098 0.707-0.293l4.75-4.748 4.469 4.47-4.75 4.748c-0.391 0.391-0.391 1.022 0 1.414 0.195 0.194 0.451 0.293 0.707 0.293 0.257 0 0.513-0.099 0.707-0.293l4.75-4.748 4.468 4.467-11.17 11.13c-0.391 0.392-0.391 1.023 0 1.414 0.195 0.195 0.451 0.293 0.707 0.293 0.257 0 0.513-0.098 0.707-0.293l11.131-11.131 4.469 4.469-4.749 4.75c-0.392 0.392-0.392 1.023 0 1.414 0.194 0.195 0.451 0.293 0.707 0.293s0.513-0.098 0.707-0.293l4.749-4.75 4.47 4.47-4.749 4.75c-0.391 0.391-0.391 1.022 0 1.414 0.195 0.194 0.451 0.293 0.707 0.293s0.512-0.099 0.707-0.293l4.749-4.75 4.354 4.354-23.26 23.245z" fill="#2C5270"/>	<g fill="#2C5270">		<path d="m141 158h6v3h-6.001v12h-3v-12h-20v-1.736l19.33-28.26h3.67v27zm-18.49 0h15.49v-22.975l-1.932 3.053-13.56 19.93z"/>		<path d="m153.3 153.01l2.27-22.01h20.43v3h-17.576l-1.513 14.33c1.027-0.934 2.156-1.652 3.389-2.156 1.232-0.505 2.904-0.784 5.015-0.841 3.474-0.056 6.274 1.111 8.403 3.502s3.193 5.602 3.193 9.636c0 4.127-1.032 8.367-3.096 10.832-2.063 2.465-5.168 3.697-9.313 3.697-3.361 0-6.162-0.938-8.403-2.814-2.24-1.877-3.314-4.394-3.221-8.073l0.056-0.168h2.997c0 2.736 0.779 4.569 2.339 6.021s3.637 2.178 6.232 2.178c3.025 0 5.29-0.914 6.793-2.741 1.503-1.828 2.255-5.42 2.255-8.89 0-3.039-0.752-5.478-2.255-7.314s-3.609-2.756-6.316-2.756c-2.614 0-4.608 0.416-5.98 1.246-1.372 0.832-2.367 2.087-2.983 3.768l-2.72-0.46z"/>		<path d="m223.41 156.59c0 5.266-1.14 9.318-3.418 12.156-2.278 2.839-5.443 4.258-9.495 4.258-4.034 0-7.204-1.424-9.511-4.271-2.306-2.848-3.459-6.896-3.459-12.143v-9.104c0-5.248 1.139-9.3 3.417-12.157s5.443-4.286 9.496-4.286c4.052 0 7.228 1.429 9.524 4.286s3.445 6.909 3.445 12.157v9.09zm-3.36-9.68c0-4.181-0.822-7.395-2.465-9.643-1.644-2.249-4.025-3.373-7.144-3.373s-5.49 1.124-7.114 3.373c-1.625 2.248-2.438 5.462-2.438 9.643v10.16c0 4.143 0.826 7.356 2.479 9.643 1.652 2.285 4.028 3.429 7.129 3.429 3.1 0 5.466-1.139 7.101-3.415 1.634-2.276 2.451-5.495 2.451-9.656v-10.15z"/>		<path d="m256.01 156.59c0 5.266-1.141 9.318-3.418 12.156-2.279 2.839-5.443 4.258-9.496 4.258-4.033 0-7.204-1.424-9.51-4.271-2.307-2.848-3.459-6.896-3.459-12.143v-9.104c0-5.248 1.139-9.3 3.417-12.157s5.443-4.286 9.495-4.286c4.053 0 7.229 1.429 9.525 4.286s3.445 6.909 3.445 12.157v9.09zm-3.36-9.68c0-4.181-0.822-7.395-2.465-9.643-1.645-2.249-4.025-3.373-7.145-3.373-3.117 0-5.489 1.124-7.114 3.373-1.625 2.248-2.437 5.462-2.437 9.643v10.16c0 4.143 0.826 7.356 2.479 9.643 1.652 2.285 4.029 3.429 7.129 3.429s5.467-1.139 7.102-3.415c1.633-2.276 2.451-5.495 2.451-9.656v-10.15z"/>		<path d="m288.61 156.59c0 5.266-1.14 9.318-3.417 12.156-2.279 2.839-5.444 4.258-9.496 4.258-4.034 0-7.204-1.424-9.51-4.271-2.307-2.848-3.46-6.896-3.46-12.143v-9.104c0-5.248 1.139-9.3 3.418-12.157 2.277-2.857 5.443-4.286 9.495-4.286 4.053 0 7.228 1.429 9.524 4.286s3.445 6.909 3.445 12.157v9.09zm-3.36-9.68c0-4.181-0.822-7.395-2.465-9.643-1.644-2.249-4.024-3.373-7.144-3.373-3.118 0-5.49 1.124-7.114 3.373-1.625 2.248-2.438 5.462-2.438 9.643v10.16c0 4.143 0.826 7.356 2.479 9.643 1.652 2.285 4.028 3.429 7.129 3.429 3.1 0 5.467-1.139 7.101-3.415s2.451-5.495 2.451-9.656v-10.15z"/>		<path d="m326 167.76h0.581l11.96-25.76h3.46v31h-2.832v-25.014l-0.17-0.03-11.33 25.04h-2.381l-12.122-25.603-0.17 0.03v25.57h-2.92v-31h3.984l11.94 25.76z"/>	</g>		<path d="m366.37 156h-14.732v-1.539l7.895-8.838c1.457-1.645 2.485-3.021 3.087-4.13s0.902-2.171 0.902-3.187c0-1.5-0.422-2.703-1.267-3.607-0.844-0.905-2.038-1.357-3.583-1.357-1.832 0-3.222 0.508-4.171 1.522-0.949 1.016-1.424 2.373-1.424 4.071h-1.837l-0.033-0.099c-0.055-2.009 0.596-3.708 1.953-5.098 1.357-1.391 3.194-2.086 5.512-2.086 2.074 0 3.735 0.596 4.981 1.788 1.247 1.191 1.871 2.791 1.871 4.8 0 1.324-0.417 2.667-1.25 4.03-0.833 1.362-1.994 2.883-3.484 4.56l-6.637 7.398 0.033 0.082h12.184v1.71z" fill="#2C5270"/></g></svg><svg xmlns:xlink="http://www.w3.org/1999/xlink" id="factory" xml:space="preserve" height="119" viewBox="0 0 480 190" width="300" version="1.1" y="119" x="0px" enable-background="new 0 0 480 190"><g fill="#2C5270">	<path d="m294 66h-18.091v-5.041c0-1.056-0.854-1.91-1.909-1.91h-35c-1.055 0-1.909 0.854-1.909 1.91v5.079h-15.1c0-0.039 0.007-0.078 0.005-0.117l-2-34.039c-0.07-1.057-0.94-1.882-2-1.882h-7c-1.059 0-1.935 0.825-1.996 1.883l-1.5 25.528-1.504-25.527c-0.062-1.058-0.938-1.883-1.996-1.883h-7c-1.059 0-1.935 0.825-1.996 1.883l-2 33.999c-0.002 0.039 0.005 0.078 0.005 0.117h-12c-1.104 0-2 0.896-2 2v45.961c0 1.104 0.896 2 2 2h113c1.104 0 2-0.896 2-2v-45.958c0-1.106-0.9-2.002-2-2.002zm-83-34h7l2 34h-11l2-34zm-14 0h7l2 34h-11l2-34zm5 82v-21h10v21h-10zm92 0.04l-80-0.04v-21c0-1.104-0.896-2-2-2h-10c-1.104 0-2 0.896-2 2v21l-19 0.041v-46.081h113v46.081z"/>	<path d="m223.95 27.954c1.031-0.114 1.95-0.574 2.871-1.147 1.377 1.263 3.329 1.952 5.282 1.607 0.689-0.113 1.379-0.345 1.953-0.574 0 0 0 0.114 0.113 0.114 0.117 0.229 0.229 0.347 0.346 0.574 0.114 0.116 0.229 0.23 0.229 0.346 0.116 0.229 0.229 0.345 0.459 0.458 0.114 0.117 0.229 0.231 0.346 0.346 0.113 0.114 0.343 0.346 0.574 0.46 0.114 0.114 0.229 0.114 0.343 0.229 0.23 0.115 0.46 0.345 0.69 0.459 0.114 0 0.114 0 0.229 0.115 0.921 0.459 2.069 0.804 3.101 0.804 0.346 0 0.689 0 1.037-0.115 0.11 0 0.11 0 0.229-0.113 0.229 0 0.344-0.116 0.575-0.116 1.837 2.183 4.476 3.561 7.348 3.561 0.459 0 0.921 0 1.38-0.115 1.608-0.228 3.215-0.919 4.479-1.952 0.457 0.346 1.032 0.575 1.606 0.804 0.115 0 0.229 0.116 0.229 0.116 0.112 0 0.229 0.113 0.343 0.113 0.23 0.116 0.459 0.116 0.807 0.116h0.113 0.803c0.347 0 0.691 0 1.037-0.116 2.295-0.344 4.25-1.723 5.168-3.789 1.262 0.459 2.526 0.574 3.904 0.345 2.184-0.345 4.132-1.495 5.514-3.217 1.379-1.838 1.838-4.021 1.605-6.202-0.457-2.871-2.412-5.396-5.053-6.546 0-0.461 0-0.806-0.114-1.149-1.15-6.316-6.9-11.37-13.67-11.37-0.574 0-1.266 0-1.842 0.114h-0.112c-0.229 0-0.344 0.115-0.575 0.115-0.228 0-0.46 0.113-0.802 0.113-0.231 0-0.347 0.116-0.574 0.116-0.346 0.114-0.688 0.229-1.032 0.346-0.115 0-0.229 0.113-0.229 0.113-1.953 0.805-3.677 1.952-5.056 3.561-2.067-1.033-4.479-1.377-6.892-1.147-2.409 0.343-4.594 1.377-6.317 2.985-1.606-1.033-3.56-1.492-5.398-1.147-2.18 0.343-4.02 1.377-5.281 3.1-1.265 1.608-1.725 3.678-1.609 5.743-3.215 0.46-5.513 3.561-5.053 6.776 0.57 3.329 3.56 5.626 6.89 5.166zm-1.38-9.534h0.92c0.344 0 0.689-0.114 0.918-0.459 0.23-0.346 0.344-0.689 0.23-1.034-0.113-0.229-0.113-0.459-0.23-0.688-0.457-3.217 1.722-6.089 4.938-6.547 1.379-0.23 2.645 0.114 3.791 0.804 0 0.345 0.229 0.689 0.459 0.919 0.461 0.345 1.149 0.229 1.494-0.229 1.493-1.838 3.561-2.986 5.971-3.331 1.727-0.229 3.563 0 5.17 0.688-0.229 0.345-0.344 0.574-0.572 0.919-0.229 0.573-0.116 1.264 0.459 1.494 0.113 0.115 0.346 0.115 0.46 0.115 0.458 0 0.804-0.23 1.032-0.575 1.033-2.067 2.642-3.675 4.596-4.71h0.113c0.347-0.229 0.688-0.344 1.033-0.458 0.114 0 0.229-0.116 0.347-0.116 0.229-0.113 0.459-0.229 0.805-0.229 0.229 0 0.343-0.115 0.574-0.115 0.112 0 0.229 0 0.343-0.113 0.229 0 0.46-0.115 0.807-0.115 0.573-0.345 1.147-0.345 1.607-0.345 5.626 0 10.452 4.249 11.253 9.762 0.115 0.461 0.115 1.035 0.115 1.61 0 1.031-0.345 2.641-0.345 2.641-0.112 0.574 0.229 1.148 0.918 1.263h0.23c0.574 0 1.034-0.345 1.146-0.919 0 0 0.115-0.688 0.229-1.378 1.607 0.919 2.644 2.527 2.87 4.364 0.23 1.607-0.229 3.216-1.146 4.479-0.918 1.263-2.412 2.184-4.021 2.411-1.262 0.23-2.523 0-3.673-0.574-0.347-0.114-0.688-0.114-0.921 0-0.344 0.115-0.573 0.347-0.688 0.69-0.573 1.723-2.065 3.101-3.79 3.33h-0.689-0.114-0.573-0.229c-0.116 0-0.232 0-0.348-0.115-0.572-0.114-1.146-0.459-1.724-0.805-0.112 0-0.112-0.113-0.229-0.113-0.115 0-0.115-0.115-0.229-0.115-0.344-0.344-0.574-0.688-0.803-1.034-0.231-0.573-0.922-0.805-1.494-0.46-0.575 0.231-0.805 0.92-0.46 1.494 0.116 0.229 0.229 0.46 0.345 0.574-0.92 0.689-2.068 1.148-3.217 1.378-2.755 0.344-5.514-0.804-7.119-3.101v-0.114c-0.572-0.919-0.921-1.839-1.148-2.986-0.112-0.574-0.688-1.034-1.264-0.919-0.574 0.115-1.033 0.689-0.92 1.264 0.114 0.918 0.348 1.723 0.807 2.642-1.494 0.114-2.756-0.345-3.791-1.263l-0.115-0.117c-0.114-0.114-0.346-0.344-0.459-0.573l-0.114-0.114c-0.115-0.23-0.231-0.346-0.347-0.574 0-0.115-0.114-0.115-0.114-0.23-0.113-0.23-0.113-0.344-0.229-0.574 0-0.23-0.115-0.344-0.115-0.574-0.114-0.574-0.688-1.034-1.264-0.919-0.574 0.114-0.918 0.574-0.918 1.149-0.459 0.344-1.033 0.459-1.607 0.574-1.493 0.229-3.102-0.461-4.021-1.724-0.346-0.459-1.034-0.574-1.609-0.229-0.113 0.114-0.113 0.114-0.229 0.229-0.117 0-0.117 0.114-0.23 0.114-0.575 0.574-1.263 1.035-2.184 1.148-2.065 0.346-3.901-1.148-4.247-3.101 0.1-2.182 1.47-4.136 3.54-4.366z"/>	<path d="m251.74 23.129c0.346 0 0.69-0.115 0.921-0.459 1.723-2.527 2.525-5.513 2.064-8.5-0.112-0.574-0.688-1.032-1.264-0.919-0.572 0.115-1.031 0.691-0.92 1.265 0.348 2.411-0.229 4.823-1.604 6.891-0.346 0.459-0.23 1.264 0.229 1.607 0.11 0.001 0.35 0.115 0.57 0.115z"/>	<path d="m236.9 22.804h0.113c2.526-0.345 4.823-1.953 6.088-4.249 0.344-0.575 0.113-1.264-0.459-1.493-0.574-0.345-1.268-0.115-1.494 0.459-0.92 1.607-2.525 2.757-4.364 3.102-0.574 0.115-1.032 0.689-0.917 1.264 0 0.456 0.46 0.917 1.03 0.917z"/>	<rect y="79" x="238" height="9.959" width="10"/>	<rect y="92" x="238" height="9.959" width="10"/>	<rect y="79" x="252" height="9.959" width="10"/>	<rect y="92" x="252" height="9.959" width="10"/>	<rect y="79" x="266" height="9.959" width="10"/>	<rect y="92" x="266" height="9.959" width="10"/></g><g fill="#2C5270">	<path d="m138.46 162.94l2.35-22.94h21.19v3h-18.243l-1.562 15.113c1.06-0.963 2.227-1.705 3.499-2.227 1.272-0.52 2.998-0.809 5.176-0.867 3.586-0.058 6.478 1.147 8.675 3.615s3.297 5.783 3.297 9.947c0 4.261-1.065 7.663-3.195 10.208-2.131 2.545-5.335 3.817-9.615 3.817-3.47 0-6.362-0.969-8.675-2.906s-3.422-4.805-3.326-8.604l0.058-0.174h3.094c0 2.826 0.805 4.987 2.415 6.486 1.61 1.498 3.754 2.248 6.435 2.248 3.123 0 5.46-0.943 7.012-2.83s2.328-4.621 2.328-8.202c0-3.138-0.776-5.655-2.328-7.552s-3.726-2.845-6.521-2.845c-2.7 0-4.757 0.429-6.174 1.287s-2.443 2.154-3.08 3.89l-2.82-0.48z"/>	<path d="m195.55 165.66c0 5.436-1.176 9.619-3.528 12.55-2.353 2.931-5.62 4.396-9.803 4.396-4.164 0-7.437-1.471-9.818-4.41s-3.571-7.118-3.571-12.535v-9.398c0-5.418 1.176-9.602 3.528-12.551s5.62-4.424 9.803-4.424c4.183 0 7.461 1.475 9.832 4.424 2.372 2.949 3.557 7.133 3.557 12.551v9.4zm-3.47-9.99c0-4.314-0.849-7.633-2.545-9.954s-4.154-3.481-7.374-3.481-5.668 1.16-7.345 3.481c-1.677 2.321-2.516 5.64-2.516 9.954v10.49c0 4.275 0.853 7.594 2.559 9.954 1.707 2.36 4.159 3.54 7.36 3.54 3.2 0 5.644-1.176 7.331-3.525 1.687-2.351 2.53-5.674 2.53-9.969v-10.48z"/>	<path d="m229.17 165.66c0 5.436-1.176 9.619-3.527 12.55-2.353 2.931-5.62 4.396-9.803 4.396-4.164 0-7.437-1.471-9.818-4.41s-3.571-7.118-3.571-12.535v-9.398c0-5.418 1.176-9.602 3.528-12.551s5.62-4.424 9.803-4.424c4.183 0 7.461 1.475 9.832 4.424s3.557 7.133 3.557 12.551v9.4zm-3.47-9.99c0-4.314-0.849-7.633-2.545-9.954s-4.154-3.481-7.374-3.481-5.668 1.16-7.345 3.481c-1.677 2.321-2.516 5.64-2.516 9.954v10.49c0 4.275 0.853 7.594 2.559 9.954 1.707 2.36 4.159 3.54 7.36 3.54 3.2 0 5.644-1.176 7.331-3.525 1.687-2.351 2.53-5.674 2.53-9.969v-10.48z"/>	<path d="m262.78 165.66c0 5.436-1.176 9.619-3.529 12.55-2.352 2.931-5.619 4.396-9.803 4.396-4.164 0-7.436-1.471-9.817-4.41-2.382-2.939-3.571-7.118-3.571-12.535v-9.398c0-5.418 1.176-9.602 3.527-12.551 2.353-2.949 5.621-4.424 9.804-4.424 4.182 0 7.459 1.475 9.832 4.424 2.371 2.949 3.557 7.133 3.557 12.551v9.4zm-3.47-9.99c0-4.314-0.848-7.633-2.545-9.954s-4.154-3.481-7.373-3.481c-3.221 0-5.668 1.16-7.346 3.481s-2.516 5.64-2.516 9.954v10.49c0 4.275 0.854 7.594 2.559 9.954 1.707 2.36 4.16 3.54 7.359 3.54 3.201 0 5.645-1.176 7.33-3.525 1.688-2.351 2.531-5.674 2.531-9.969v-10.48z"/>	<path d="m301.86 177.14h0.174l12.35-27.14h3.62v32h-2.809v-25.273l-0.174-0.029-11.86 25.3h-2.459l-12.529-25.881-0.17 0.03v25.85h-3v-32h4.541l12.32 27.14z"/></g><text font-size="35.082" font-family="'Roboto-Light'" transform="translate(326.75 164.04)" fill="#2C5270">2</text></svg><svg xmlns:xlink="http://www.w3.org/1999/xlink" id="officces" xml:space="preserve" height="119" viewBox="0 0 480 190" width="300" version="1.1" y="238" x="0px" enable-background="new 0 0 480 190"><path d="m359.56 90.52l-21.068-10.437c-0.281-0.141-0.596-0.218-0.912-0.228l-16.1-0.459-5.721-10.72c-0.385-0.721-1.133-1.161-1.936-1.161-0.086 0-0.17 0.005-0.256 0.015l-4.674 0.549-0.635-2.816 1.096-0.561c0.984-0.504 1.441-1.66 1.066-2.699l-4.123-11.422c-0.318-0.88-1.152-1.449-2.064-1.449-0.107 0-0.215 0.008-0.324 0.023l-15.424 2.303c-0.648 0.097-1.221 0.479-1.557 1.04l-0.611 1.018-8.629 1.177c-0.617 0.085-1.17 0.428-1.52 0.943l-6.436 9.488-5.035-1.882c4.016-5.791 7.236-12.216 7.236-18.562 0-10.249-8.252-18.397-18.396-18.397-10.143 0-18.395 8.148-18.395 18.397 0 5.707 2.609 11.479 6.053 16.796l-5.266-1.083c-3.502-3.884-8.564-6.322-14.204-6.322-10.541 0-19.115 8.469-19.115 19.119 0 3.993 1.238 8.017 3.133 11.907l-5.201 7.377c-0.343 0.483-0.474 1.086-0.363 1.666l0.606 3.265-6.965 10.242c-0.64 0.939-0.455 2.211 0.422 2.932l7.787 6.393c0.392 0.32 0.883 0.498 1.39 0.498l14.172 0.021 4.213 4.469c0.424 0.449 1.004 0.689 1.598 0.689 0.305 0 0.613-0.063 0.904-0.195l22.249-10.084 9.678 7.008-0.779 1.557c-0.393 0.787-0.279 1.73 0.289 2.402l6.547 7.715-2.264-0.305c-0.098-0.014-0.197-0.02-0.293-0.02-0.818 0-1.58 0.459-1.957 1.203l-8.242 16.297c-0.357 0.703-0.309 1.545 0.129 2.203l1.689 2.543c0.275 0.418 0.688 0.727 1.164 0.879l2.775 0.879c0.217 0.07 0.438 0.104 0.66 0.104 0.516 0 1.021-0.182 1.426-0.523l22.432-19.102 8.586 6.098c0.373 0.266 0.818 0.406 1.271 0.406 0.102 0 0.201-0.008 0.305-0.021l8.986-1.26 0.342 0.625-10.105 5.004c-0.949 0.469-1.426 1.547-1.139 2.564l0.621 2.191c0.207 0.732 0.779 1.305 1.512 1.514l5.703 1.617-1.176 4.543c-0.273 1.057 0.271 2.154 1.279 2.574l6.201 2.592c0.27 0.113 0.559 0.168 0.846 0.168 0.367 0 0.732-0.092 1.063-0.273l15.832-8.764 6.42 0.521c0.061 0.006 0.119 0.008 0.178 0.008 0.793 0 1.531-0.43 1.92-1.133l2.59-4.676c0.465-0.838 0.33-1.881-0.33-2.576l-2.932-3.078c-0.422-0.443-1.002-0.682-1.59-0.682-0.289 0-0.58 0.057-0.854 0.174l-6.975 2.955-5.176-7.746 27.473-7.574c0.475-0.129 0.891-0.414 1.182-0.807l7.697-10.375 6.711 0.455c0.049 0.004 0.1 0.004 0.146 0.004 0.52 0 1.021-0.184 1.418-0.521l1.152-0.977c0.467-0.396 0.748-0.971 0.773-1.58l1.037-24.603c0.03-0.866-0.45-1.671-1.23-2.057zm-106.02-53.895c4.227 0 7.664 3.437 7.664 7.665s-3.439 7.664-7.664 7.664c-4.23 0-7.666-3.437-7.666-7.664 0.01-4.227 3.44-7.665 7.67-7.665zm-31.81 28.194c4.394 0 7.965 3.571 7.965 7.966 0 4.392-3.571 7.963-7.965 7.963s-7.966-3.571-7.966-7.963c-0.01-4.395 3.57-7.966 7.96-7.966zm135.82 52.271l-1.15 0.977-7.908-0.535-8.41 11.338-28.857 7.953-0.805 1.535 7.131 10.676 8.645-3.664 2.932 3.078-2.59 4.678-7.082-0.574-16.408 9.084-6.201-2.592 1.713-6.617-7.766-2.203-0.621-2.191 12.152-6.018-2.166-3.961-10.488 1.469-9.98-7.086-23.734 20.209-2.771-0.881-1.689-2.543 8.242-16.295 7.926 1.063-10.242-12.07 1.611-3.223-12.219-8.848-23.412 10.609-4.858-5.156-15.117-0.023-7.787-6.393 7.473-10.99-0.773-4.152 4.547-6.448c3.41 6.147 8.258 12.007 12.258 16.611 0.025 0.029 1.521 2.097 2.529 2.097h0.086c1.078 0 2.535-2.067 2.563-2.097 6.972-8.017 16.527-19.489 16.527-30.641 0-3.747-1.078-7.247-2.912-10.18l5.029 1.016c2.627 3.684 5.537 7.083 8.088 10.015 0.023 0.027 1.352 1.61 2.393 1.61 1 0 2.564-1.589 2.588-1.617 2.314-2.662 4.92-5.72 7.35-9.014l7.205 2.691 7.4-10.917 9.67-1.319 1.154-1.919 15.424-2.303 4.123 11.422-2.609 1.336 1.441 6.405 6.635-0.779 6.32 11.845 17.373 0.496 21.07 10.436-1.03 24.587z" fill="#2C5270"/>	<path d="m186 135h-61v-5.648l32.657-36.637c5.97-6.739 10.187-12.381 12.653-16.927 2.465-4.545 3.698-8.898 3.698-13.06 0-6.15-1.73-11.081-5.19-14.79-3.46-3.708-8.356-5.563-14.688-5.563-7.509 0-13.208 2.081-17.097 6.242-3.89 4.162-5.834 9.725-5.834 16.689h-7.531l-0.136-0.407c-0.227-8.232 2.442-15.197 8.006-20.896 5.563-5.699 13.094-8.548 22.592-8.548 8.502 0 15.31 2.442 20.421 7.327s7.667 11.443 7.667 19.675c0 5.428-1.708 10.935-5.122 16.521-3.416 5.586-8.175 11.816-14.281 18.691l-27.206 30.994 0.136 0.338h50.25v6z" fill="#2C5270"/></svg><svg xmlns:xlink="http://www.w3.org/1999/xlink" id="personel" xml:space="preserve" height="119" viewBox="0 0 480 190" width="300" version="1.1" y="357" x="0px" enable-background="new 0 0 480 190"><g fill="#2C5270">	<path d="m277.23 41.927c0.055 0.688 0.117 1.393 0.211 2.131-0.482 0.186-0.92 0.467-1.279 0.836-0.689 0.703-1.059 1.678-1.033 2.744 0.061 2.795 1.469 5.232 1.898 5.912 0.557 0.875 1.363 1.391 2.305 1.477 1.936 7.596 7.436 12.82 13.639 12.828 6.287-0.008 11.824-5.264 13.695-12.883 0.621-0.1 1.453-0.441 2.1-1.457 0.469-0.744 1.879-2.984 1.939-5.717 0.023-1.125-0.359-2.152-1.08-2.889-0.326-0.334-0.709-0.596-1.129-0.779 0.096-0.756 0.164-1.477 0.217-2.18 3.6-1.117 4.789-2.461 5.156-3.068 0.297-0.492 0.369-1.088 0.193-1.637-0.172-0.549-0.572-0.996-1.1-1.229l-1.912-0.844c-0.395-7.932-4.42-15.951-14.59-16.875-0.02-1.088-0.908-1.963-2-1.963h-2.826c-1.09 0-1.977 0.873-1.998 1.957-9.738 0.941-14.393 8.777-14.84 16.9l-1.689 0.777c-0.492 0.229-0.873 0.645-1.053 1.158-0.18 0.512-0.143 1.074 0.104 1.559 0.31 0.642 1.42 2.07 5.06 3.242zm1.63 3.875c0.273 0 0.568 0.049 0.877 0.15-0.205-1.23-0.346-2.367-0.449-3.463 3.063 0.711 7.406 1.229 13.578 1.229 6.256 0 10.67-0.516 13.781-1.221-0.104 1.092-0.242 2.229-0.447 3.455 0.27-0.09 0.529-0.131 0.77-0.131 1.045 0 1.754 0.785 1.73 1.934-0.045 2.084-1.117 3.877-1.627 4.688-0.279 0.439-0.588 0.568-0.877 0.568-0.408 0-0.777-0.258-0.973-0.258-0.07 0-0.121 0.035-0.137 0.133 0 0.002-0.201 0.863-0.201 0.865-1.566 7.588-6.707 12.099-11.918 12.104-5.207-0.006-10.334-4.654-11.914-12.223-0.006-0.016-0.209-0.723-0.213-0.746-0.018-0.096-0.064-0.131-0.143-0.131-0.215 0-0.641 0.285-1.092 0.285-0.305 0-0.621-0.129-0.895-0.561-0.512-0.809-1.545-2.799-1.59-4.885-0.03-1.116 0.71-1.792 1.73-1.792z"/>	<path d="m171.1 41.925c0.051 0.686 0.117 1.395 0.211 2.133-0.483 0.186-0.92 0.467-1.28 0.836-0.688 0.705-1.056 1.68-1.031 2.744 0.059 2.801 1.469 5.234 1.897 5.914 0.556 0.873 1.365 1.389 2.304 1.475 1.936 7.596 7.436 12.82 13.641 12.828 6.285-0.008 11.822-5.264 13.695-12.883 0.621-0.1 1.453-0.441 2.098-1.455 0.471-0.748 1.881-2.992 1.941-5.719 0.024-1.123-0.357-2.15-1.08-2.889-0.326-0.334-0.709-0.596-1.131-0.779 0.098-0.756 0.168-1.48 0.219-2.18 3.598-1.117 4.787-2.461 5.154-3.068 0.299-0.492 0.368-1.088 0.196-1.637-0.174-0.549-0.574-0.996-1.103-1.229l-1.912-0.844c-0.395-7.932-4.418-15.951-14.59-16.875-0.02-1.088-0.905-1.963-2-1.963h-2.824c-1.09 0-1.977 0.873-2 1.957-9.735 0.941-14.393 8.777-14.838 16.9l-1.69 0.777c-0.492 0.229-0.873 0.645-1.053 1.158-0.181 0.512-0.144 1.074 0.102 1.559 0.31 0.642 1.42 2.07 5.06 3.24zm29.75 3.897c1.043 0 1.754 0.785 1.729 1.934-0.048 2.084-1.119 3.877-1.629 4.688-0.279 0.439-0.589 0.568-0.878 0.568-0.407 0-0.776-0.258-0.971-0.258-0.07 0-0.119 0.035-0.136 0.133 0 0.002-0.2 0.863-0.2 0.865-1.57 7.588-6.707 12.098-11.92 12.104-5.205-0.007-10.334-4.654-11.912-12.223-0.009-0.016-0.211-0.723-0.216-0.746-0.016-0.096-0.065-0.131-0.143-0.131-0.215 0-0.641 0.285-1.092 0.285-0.305 0-0.621-0.129-0.895-0.561-0.512-0.809-1.545-2.799-1.588-4.885-0.025-1.117 0.711-1.793 1.733-1.793 0.274 0 0.57 0.049 0.879 0.15-0.204-1.229-0.35-2.375-0.448-3.463 3.063 0.711 7.405 1.229 13.578 1.229 6.256 0 10.668-0.516 13.78-1.221-0.101 1.086-0.242 2.229-0.448 3.455 0.29-0.089 0.54-0.13 0.79-0.13zm-30.22-9.33c0-8.363 4.506-16.293 14.872-16.293v-1.863h2.824v1.875c10.709 0 14.623 7.947 14.623 16.281l3.072 1.355s-0.596 0.98-3.348 1.955c-0.572 0.203-1.242 0.404-2.016 0.598-2.894 0.723-7.283 1.318-13.922 1.318-6.576 0-10.892-0.592-13.72-1.316-0.778-0.199-1.446-0.408-2.017-0.619-2.686-0.992-3.192-1.994-3.192-1.994l2.84-1.297z"/>	<path d="m219.94 45.65c-0.961 1.527-1.024 3.545-0.19 6.002 0.201 1.59 0.953 5.455 3.514 6.318 2.896 8.206 11.328 13.182 16.508 13.182 4.94 0 13.016-4.49 16.178-12.945 2.563-0.799 3.59-4.625 3.947-6.512 0.811-2.508 0.848-4.326 0.119-5.713-0.242-0.461-0.543-0.818-0.857-1.094 1.191-4.447 2.641-11.219-2.109-16.621-0.545-0.701-3.801-4.525-10.943-6.004-0.443-0.186-2.414-1.104-2.906-2.973-0.137-0.514-0.471-0.951-0.93-1.219-0.307-0.18-0.652-0.271-1.006-0.271-0.17 0-0.342 0.023-0.512 0.066-0.993 0.264-2.442 0.986-3.313 2.283-0.387 0.012-0.766 0.137-1.092 0.367l-0.109 0.078c-0.277-0.137-0.58-0.207-0.883-0.207-0.227 0-0.453 0.039-0.67 0.117-0.465 0.164-11.385 4.131-13.898 12.027-1.225 3.85-1.1 6.068 0.174 11.98-0.38 0.297-0.73 0.67-1.02 1.139zm2.75-12.512c2.24-7.041 12.662-10.75 12.662-10.75l1.047 0.541 1.103-0.781 1.193 0.477c0-2.145 2.565-2.824 2.565-2.824 0.846 3.207 4.277 4.391 4.277 4.391 7.152 1.43 9.963 5.346 9.963 5.346 4.641 5.223 2.475 12.041 1.314 16.338 1.082 0.314 2.539 1.09 1.135 5.326 0 0-0.932 5.152-2.992 5.152-0.15 0-0.309-0.027-0.471-0.086-2.451 8.297-10.094 12.886-14.719 12.886-4.639 0-12.875-5.04-15-13.073-0.148 0.043-0.289 0.064-0.424 0.064-2.092 0-2.639-4.945-2.639-4.945-1.594-4.465 0.791-5.494 1.545-5.574-1.5-6.804-1.73-8.773-0.55-12.488z"/>	<path d="m327.02 99.63c-0.336-3.592-1.986-15.455-5.072-22.615-0.98-2.271-3.219-4.092-7.035-5.73-3.396-1.455-8.105-3.15-10.611-4.033-0.217-0.076-0.441-0.113-0.664-0.113-0.467 0-0.926 0.164-1.293 0.476-2.977 2.522-6.527 4.028-9.498 4.028-2.918 0-6.477-1.492-9.518-3.998-0.363-0.299-0.814-0.457-1.271-0.457-0.223 0-0.447 0.037-0.664 0.115-3.047 1.074-7.338 2.639-10.475 3.982-2.428 1.043-4.201 2.162-5.43 3.422-0.012-0.004-0.02-0.01-0.027-0.014-3.936-1.686-9.457-3.678-12.398-4.715-0.217-0.076-0.441-0.113-0.664-0.113-0.467 0-0.928 0.164-1.293 0.475-2.832 2.402-6.104 4.01-9.121 4.566-0.396 0.074-0.764 0.125-1.114 0.164-0.371 0.035-0.742 0.066-1.102 0.066-0.348 0-0.709-0.029-1.07-0.064-0.344-0.039-0.709-0.09-1.104-0.164-0.008-0.002-0.018 0-0.025-0.002-2.984-0.555-6.266-2.148-9.154-4.527-0.362-0.299-0.813-0.455-1.271-0.455-0.226 0-0.448 0.037-0.666 0.113-2.901 1.023-8.353 2.988-12.237 4.656-0.011 0.004-0.019 0.008-0.027 0.014-1.229-1.26-3.002-2.381-5.432-3.422-3.398-1.457-8.107-3.152-10.611-4.033-0.217-0.076-0.441-0.113-0.664-0.113-0.467 0-0.926 0.164-1.293 0.476-2.977 2.522-6.527 4.028-9.498 4.028-2.918 0-6.475-1.492-9.516-3.998-0.363-0.299-0.814-0.457-1.271-0.457-0.225 0-0.449 0.037-0.666 0.115-3.049 1.074-7.342 2.641-10.473 3.982-3.82 1.639-6.056 3.459-7.035 5.729-3.08 7.15-4.736 19.021-5.074 22.617-0.107 1.16-0.436 4.689 2.857 6.105 8.305 3.568 21.588 4.844 31.248 4.846 4.063-0.002 8.764-0.23 13.467-0.758 0.17 1.77 0.906 3.586 3.162 4.559 7.985 3.434 19.932 5.039 30.199 5.498 0.012 0 0.022 0.004 0.034 0.004 0.179 0.008 0.353 0.012 0.529 0.018 0.721 0.029 1.432 0.055 2.133 0.072 0.082 0.002 0.164 0.006 0.246 0.008l0.342 0.008c0.095 0.002 0.185 0.004 0.277 0.006 0.297 0.006 0.592 0.012 0.885 0.016 0.608 0.008 1.211 0.016 1.791 0.016 0.899 0 1.835-0.016 2.785-0.033h0.105l0.158-0.004 0.174-0.004c0.057-0.002 0.111-0.004 0.17-0.008 0.773-0.02 1.561-0.045 2.359-0.076 0.117-0.008 0.232-0.01 0.354-0.014 0.008 0 0.014-0.004 0.02-0.004 10.293-0.451 22.295-2.055 30.313-5.5 2.256-0.975 2.992-2.789 3.162-4.561 4.703 0.527 9.402 0.756 13.467 0.758 9.66-0.002 22.941-1.275 31.248-4.846 3.26-1.45 2.93-4.98 2.82-6.14zm-170.69 4.27c-1.25-0.537-1.888-1.582-1.654-4.08 0.234-2.496 1.777-14.72 4.918-22.009 0.852-1.975 3.131-3.459 5.986-4.684 3.25-1.395 7.793-3.033 10.352-3.938 3.408 2.809 7.412 4.455 10.787 4.455 3.387 0 7.389-1.617 10.791-4.504 2.529 0.893 7.178 2.566 10.488 3.984 1.69 0.727 3.168 1.547 4.274 2.502-3.187 1.635-5.149 3.438-6.08 5.596-3.588 8.32-5.521 22.166-5.914 26.359-0.008 0.072-0.012 0.146-0.018 0.221-4.546 0.52-9.201 0.777-13.474 0.779-10.26 0-22.78-1.38-30.47-4.68zm45.92 5.68c-0.047-0.521-0.045-1.113 0.02-1.814 0.275-2.92 2.082-17.226 5.76-25.755 0.854-1.98 2.939-3.539 5.621-4.846 0.447-0.217 0.904-0.43 1.383-0.635 0.141-0.061 0.299-0.123 0.443-0.186 3.766-1.59 8.789-3.406 11.672-4.422 2.551 2.1 5.387 3.639 8.135 4.48l-1.28 3.724c-0.155 0.455-0.145 0.947 0.033 1.395l2.08 5.201-4.383 30.873c-0.01 0.061-0.004 0.119-0.006 0.182-9.98-0.574-20.479-2.213-27.518-5.238-1.11-0.48-1.8-1.3-1.95-2.96zm73.25 2.96c-7.068 3.037-17.625 4.678-27.643 5.244-0.004-0.063 0.002-0.121-0.008-0.182l-4.379-30.88 2.076-5.199c0.176-0.445 0.188-0.939 0.033-1.393l-1.279-3.732c2.738-0.844 5.561-2.387 8.1-4.537 2.852 1.004 7.992 2.857 11.83 4.479 0.148 0.063 0.299 0.127 0.443 0.188 0.48 0.207 0.941 0.42 1.391 0.639 2.678 1.307 4.764 2.861 5.613 4.842 3.678 8.529 5.484 22.835 5.76 25.755 0.031 0.352 0.049 0.676 0.055 0.979 0.002 0.299-0.01 0.578-0.033 0.836-0.15 1.66-0.84 2.48-1.95 2.96zm47.88-8.64c-7.691 3.305-20.213 4.682-30.459 4.684-4.271-0.002-8.926-0.262-13.473-0.779-0.006-0.072-0.01-0.145-0.018-0.217-0.393-4.197-2.326-18.041-5.912-26.365-0.93-2.156-2.895-3.959-6.084-5.594 1.107-0.955 2.586-1.775 4.277-2.502 3.25-1.393 7.793-3.033 10.35-3.936 3.408 2.807 7.414 4.455 10.789 4.455 3.387 0 7.387-1.619 10.791-4.504 2.529 0.891 7.178 2.566 10.486 3.984 2.855 1.225 5.135 2.709 5.984 4.684 3.145 7.289 4.689 19.513 4.92 22.009 0.22 2.499-0.42 3.549-1.66 4.089z"/></g><g fill="#2C5270">	<path d="m212 175h-2.806v-38.283l-10.668 1.24v-2.422l13.48-2.54v42z"/>	<path d="m238.65 132.51c1.441 0 2.863 0.163 4.267 0.49s2.653 0.798 3.749 1.413l-0.895 2.826c-1.096-0.615-2.182-1.067-3.258-1.355-1.077-0.289-2.364-0.434-3.863-0.434-3.114 0-5.695 1.212-7.742 3.634s-3.07 5.604-3.07 9.544v3.719c1.153-1.499 2.624-2.7 4.411-3.604 1.788-0.903 3.768-1.355 5.939-1.355 3.768 0 6.747 1.297 8.938 3.893 2.191 2.595 3.287 5.979 3.287 10.148 0 4.134-1.178 7.545-3.532 10.236s-5.416 4.037-9.184 4.037c-3.863 0-7.05-1.441-9.558-4.325-2.509-2.884-3.763-6.833-3.763-11.851v-10.582c0-4.844 1.374-8.793 4.123-11.85 2.72-3.06 6.11-4.59 10.13-4.59zm-1.16 17.7c-2.326 0-4.359 0.604-6.099 1.814-1.74 1.209-2.927 2.764-3.561 4.664v3.082c0 4.012 0.923 7.18 2.768 9.502 1.846 2.322 4.21 3.484 7.093 3.484 2.807 0 5.051-1.099 6.732-3.297 1.683-2.198 2.523-4.881 2.523-8.049 0-3.359-0.817-6.066-2.451-8.12s-3.96-3.06-7-3.06z"/>	<path d="m282.71 158.8c0 5.42-1.173 9.592-3.518 12.514-2.346 2.922-5.604 4.383-9.774 4.383-4.152 0-7.415-1.466-9.789-4.397s-3.561-7.098-3.561-12.499v-9.371c0-5.4 1.172-9.572 3.518-12.514 2.345-2.94 5.603-4.411 9.774-4.411s7.438 1.471 9.803 4.411c2.364 2.941 3.547 7.113 3.547 12.514v9.38zm-3.46-9.96c0-4.302-0.846-7.61-2.537-9.925-1.692-2.314-4.143-3.473-7.353-3.473-3.211 0-5.651 1.158-7.323 3.473-1.673 2.314-2.509 5.623-2.509 9.925v10.458c0 4.265 0.851 7.573 2.552 9.926 1.701 2.354 4.146 3.529 7.338 3.529 3.19 0 5.627-1.172 7.309-3.516 1.683-2.342 2.523-5.656 2.523-9.939v-10.46z"/></g></svg><svg xmlns:xlink="http://www.w3.org/1999/xlink" id="projects" xml:space="preserve" height="119" viewBox="0 0 480 190" width="300" version="1.1" y="476" x="0px" enable-background="new 0 0 480 190"><path d="m317.12 51.163c-0.98-1.395-2.66-2.163-4.74-2.163h-14.355v-1c0-3.421-2.579-6-6-6h-5v-3c0-3.421-2.579-6-6-6h-5v-3c0-3.421-2.579-6-6-6h-56.295c-0.037-0.046-0.071-0.094-0.112-0.136-1.17-1.202-2.74-1.864-4.41-1.864h-1.54l-4.835-6.887c-0.062-0.09-0.132-0.172-0.207-0.249-1.17-1.202-2.74-1.864-4.41-1.864h-30.992c-3.41 0-6.185 2.773-6.185 6.186v71.814c0 3.422 2.579 6 6 6h5v3c0 3.422 2.579 6 6 6h5v3c0 3.422 2.579 6 6 6h103c0.749 0 1.455-0.131 2.106-0.359 2.274-0.65 4.088-2.295 4.865-4.563l18.537-53.286c0.76-2.159 0.62-4.163-0.42-5.631zm-36.1-16.163c2.313 0 4 1.688 4 4v3h-53.96l-4.914-7h54.87zm-11-9c2.313 0 4 1.688 4 4v3h-49.294c-0.037-0.046-0.071-0.094-0.112-0.136-1.18-1.202-2.75-1.864-4.42-1.864h-1.54l-3.51-5h54.87zm-98 2.186v66.814h-5.02c-2.31 0-4-1.687-4-4v-71.814c0-2.312 1.875-4.187 4.185-4.187h31.018c1.173 0 2.229 0.486 2.988 1.263l4.02 5.738h-27.006c-3.4 0.001-6.18 2.773-6.18 6.186zm11 9v66.814h-5c-2.31 0-4.023-1.688-4.023-4.002v-71.812c0-2.312 1.898-4.187 4.208-4.187h30.993c1.174 0 2.229 0.486 2.988 1.263l0.518 0.737 3.51 5.001h-27.008c-3.41 0.001-6.19 2.773-6.19 6.186zm7.38 75.814h-1.379c-2.31 0-4.023-1.688-4.023-4v-71.814c0-2.312 1.898-4.187 4.208-4.187h30.993c1.174 0 2.229 0.486 2.988 1.263l0.518 0.737 6.318 9h62c2.313 0 4 1.688 4 4v1.001h-77.332c-3.355 0-6.071 1.834-7.088 4.787l-21.098 58.486c-0.09 0.24-0.11 0.49-0.11 0.73zm124.26-55l-17.721 51.438c-0.082 0.238-0.186 0.461-0.299 0.68-0.034 0.068-0.071 0.135-0.109 0.201-0.088 0.152-0.184 0.297-0.285 0.439-0.052 0.07-0.1 0.145-0.156 0.215-0.121 0.15-0.254 0.293-0.391 0.43-0.104 0.104-0.213 0.197-0.324 0.291-0.05 0.041-0.101 0.08-0.15 0.119-0.426 0.328-0.899 0.598-1.418 0.793-0.002 0.002-0.004 0.002-0.006 0.002-0.152 0.072-0.324 0.115-0.488 0.168-0.514 0.143-1.055 0.225-1.618 0.225h-95.67l20.501-56.164c0.941-2.533 2.929-4.083 5.365-4.083h88.803c4.01-0.001 5.08 2.169 3.98 5.247z" fill="#2C5270"/><g fill="#2C5270">	<path d="m220 176h-25.619v-2.552l13.656-15.46c2.52-2.844 4.299-5.226 5.34-7.144 1.04-1.918 1.561-3.755 1.561-5.512 0-2.595-0.73-4.676-2.19-6.241-1.46-1.564-3.526-2.348-6.198-2.348-3.169 0-5.574 0.878-7.215 2.634-1.643 1.757-2.463 3.684-2.463 6.622h-3.178l-0.058-0.171c-0.096-3.475 1.031-5.993 3.379-8.397 2.348-2.405 5.525-3.607 9.534-3.607 3.588 0 6.46 1.03 8.617 3.092s3.235 4.829 3.235 8.303c0 2.291-0.721 4.614-2.161 6.972-1.441 2.357-3.45 4.986-6.027 7.888l-11.48 12.97 0.057 0.144h21.21v2.82z"/>	<path d="m251.42 159.94c0 5.383-1.166 9.525-3.494 12.426-2.328 2.902-5.564 4.353-9.706 4.353-4.123 0-7.363-1.455-9.72-4.366s-3.536-7.048-3.536-12.412v-9.305c0-5.363 1.164-9.505 3.493-12.426 2.328-2.92 5.563-4.38 9.705-4.38s7.386 1.46 9.734 4.38c2.348 2.921 3.523 7.063 3.523 12.426v9.3zm-3.44-9.89c0-4.271-0.84-7.557-2.52-9.855s-4.113-3.447-7.3-3.447c-3.188 0-5.611 1.149-7.271 3.447-1.661 2.299-2.491 5.584-2.491 9.855v10.385c0 4.234 0.845 7.52 2.534 9.856 1.688 2.336 4.117 3.504 7.286 3.504 3.168 0 5.588-1.163 7.258-3.49 1.67-2.326 2.504-5.616 2.504-9.87v-10.39z"/>	<path d="m284.72 159.94c0 5.383-1.164 9.525-3.492 12.426-2.33 2.902-5.564 4.353-9.707 4.353-4.123 0-7.363-1.455-9.719-4.366-2.357-2.911-3.537-7.048-3.537-12.412v-9.305c0-5.363 1.164-9.505 3.494-12.426 2.328-2.92 5.563-4.38 9.705-4.38 4.141 0 7.387 1.46 9.734 4.38 2.348 2.921 3.521 7.063 3.521 12.426v9.3zm-3.44-9.89c0-4.271-0.84-7.557-2.52-9.855s-4.113-3.447-7.301-3.447-5.611 1.149-7.271 3.447c-1.662 2.299-2.492 5.584-2.492 9.855v10.385c0 4.234 0.846 7.52 2.535 9.856 1.688 2.336 4.117 3.504 7.285 3.504s5.588-1.163 7.258-3.49c1.67-2.326 2.506-5.616 2.506-9.87v-10.39z"/></g></svg><svg xmlns:xlink="http://www.w3.org/1999/xlink" id="sorts" xml:space="preserve" height="119" viewBox="0 0 480 190" width="300" version="1.1" y="595" x="0px" enable-background="new 0 0 480 190"><path d="m384 99h-7.088l-3.146-17.842c-0.17-0.969-1.014-1.652-1.967-1.652-0.115 0-0.23 0.01-0.35 0.031l-6.871 1.211-6.35-17.439c-0.295-0.813-1.063-1.315-1.879-1.315-0.229 0-0.459 0.039-0.686 0.12l-6.107 2.226-9.385-16.258c-0.268-0.459-0.703-0.795-1.217-0.933-0.17-0.045-0.344-0.067-0.518-0.067-0.348 0-0.693 0.092-1 0.269l-5.229 3.02-12.107-14.43c-0.342-0.408-0.83-0.662-1.357-0.707-0.059-0.006-0.117-0.008-0.174-0.008-0.471 0-0.926 0.164-1.285 0.467l-89.628 75.203c-0.848 0.711-0.957 1.973-0.246 2.818l31.159 37.131c0.342 0.406 0.992 1.156 2.139 1.156s123.32-0.01 123.32-0.01c1.104 0 2-0.896 2-2v-49c0-1.104-0.9-2-2-2zm-12.2-17.494l3.08 17.494h-102.3l99.22-17.494zm-15.45-17.514l6.229 17.109-103.25 18.204 97.02-35.313zm-101.75 38.178l8.334 47.258-0.236-0.646-16.28-44.77 8.365-3.045c-0.18 0.38-0.24 0.8-0.18 1.21zm-10.07 2.52l15.486 42.545-22.901-39.658 7.44-4.293c-0.18 0.43-0.2 0.93-0.03 1.4zm93.91-55.609l9.209 15.951-99.672 36.276 90.46-52.229zm-19.87-11.858l11.883 14.159-92.192 53.224 80.31-67.387zm-83.41 69.987c-0.088 0.467-0.016 0.951 0.225 1.367l21.327 36.934-27.767-33.086 6.22-5.21zm21.42-5.39l8.555-1.508c-0.08 0.215-0.131 0.443-0.131 0.686v48.557l-0.006 0.002-8.42-47.74zm127.42 48.18h-117v-48.995h117v49z" fill="#2C5270"/><g fill="#2C5270">	<path d="m124.56 42.205c2.98 0 5.921 0.338 8.822 1.013 2.9 0.677 5.484 1.649 7.749 2.921l-1.848 5.842c-2.265-1.271-4.511-2.205-6.736-2.802-2.226-0.596-4.888-0.894-7.988-0.894-6.438 0-11.773 2.503-16.005 7.511-4.232 5.007-6.349 11.584-6.349 19.73v7.689c2.385-3.1 5.425-5.583 9.121-7.451 3.695-1.867 7.788-2.802 12.279-2.802 7.788 0 13.948 2.683 18.479 8.047 4.53 5.365 6.795 12.36 6.795 20.983 0 8.545-2.435 15.598-7.302 21.16-4.869 5.564-11.197 8.346-18.986 8.346-7.987 0-14.574-2.98-19.76-8.941s-7.779-14.127-7.779-24.498v-21.881c0-10.014 2.841-18.181 8.524-24.499 5.71-6.318 12.7-9.477 21-9.477zm-2.38 36.599c-4.809 0-9.011 1.251-12.607 3.751-3.597 2.5-6.05 5.716-7.362 9.645v6.369c0 8.295 1.908 14.844 5.723 19.646s8.703 7.203 14.664 7.203c5.802 0 10.441-2.271 13.919-6.816 3.477-4.543 5.216-10.09 5.216-16.639 0-6.945-1.689-12.541-5.067-16.788-3.37-4.245-8.2-6.368-14.48-6.368z"/>	<path d="m215.13 96.568c0 11.205-2.424 19.83-7.271 25.869-4.85 6.041-11.585 9.061-20.208 9.061-8.583 0-15.33-3.029-20.237-9.09-4.908-6.061-7.361-14.674-7.361-25.84v-19.375c0-11.167 2.423-19.79 7.272-25.87 4.848-6.08 11.584-9.12 20.208-9.12 8.623 0 15.379 3.04 20.267 9.12 4.889 6.08 7.332 14.703 7.332 25.87v19.373zm-7.15-20.587c0-8.895-1.75-15.733-5.246-20.52-3.497-4.784-8.564-7.177-15.2-7.177-6.637 0-11.683 2.393-15.141 7.177-3.458 4.786-5.186 11.625-5.186 20.52v21.621c0 8.816 1.758 15.656 5.275 20.52 3.517 4.865 8.573 7.297 15.17 7.297 6.596 0 11.633-2.422 15.11-7.266 3.478-4.846 5.217-11.695 5.217-20.551v-21.618z"/></g></svg></svg>
