<?xml version="1.0"?>
<!--Icons from directory ""-->
<svg xmlns="http://www.w3.org/2000/svg" width="45" height="443" viewBox="0 0 45 443"><svg xmlns:xlink="http://www.w3.org/1999/xlink" id="dodatkovaobrobka" xml:space="preserve" height="46" viewBox="0 0 44 45.917" width="44" version="1.1" y="0" x="0px" enable-background="new 0 0 44 45.917">	<rect y="1.458" x="15.5" height="25" width="14" fill="#004F9F"/>	<path d="m22.263 42.958l-9.526-16.5h19.052l-9.526 16.5zm-7.794-15.5l7.794 13.5 7.793-13.5h-15.587z" fill="#004F9F"/>	<g fill="#004F9F">		<rect y="44.458" x="1.5" height="1" width="15"/>		<rect y="38.458" x="1.5" height="1" width="15"/>		<rect y="38.458" x="1.5" height="7" width="1"/>		<rect y="38.458" x="15.5" height="7" width="1"/>	</g>	<g fill="#004F9F">		<rect y="44.458" x="28.5" height="1" width="15"/>		<rect y="38.458" x="28.5" height="1" width="15"/>		<rect y="38.458" x="28.5" height="7" width="1"/>		<rect y="38.458" x="42.5" height="7" width="1"/>	</g>		<polygon points="31.5 21.708 14.25 14.708 14.25 6.458 31.5 13.458" fill="#fff"/>		<path d="m31.5 22.458l-18-7.67v-9.33l18 7.67v9.33zm-17-8.344l16 6.859v-7.17l-16-6.859v7.17z" fill="#004F9F"/>		<polygon points="31.172 9.583 12.521 1.883 31.172 1.883" fill="#fff"/>		<path d="m31.5 10.406l-20.812-8.948h20.812v8.948zm-15.77-7.948l14.77 6.453v-6.453h-14.77z" fill="#004F9F"/></svg><svg xmlns:xlink="http://www.w3.org/1999/xlink" id="emaluvannia" xml:space="preserve" height="44" viewBox="0.709 0.708 44 44" width="44" version="1.1" y="46" x="0px" enable-background="new 0.709 0.708 44 44">	<path d="m44.209 44.208h-43v-4h43v4zm-42-1h41v-2h-41v2z" fill="#004F9F"/>	<rect y="38.208" x="11.197" height="1" width="33.012" fill="#004F9F"/>	<g fill="#004F9F">		<polygon points="15.533 38.708 1.857 38.708 1.857 29.749"/>		<path d="m17.209 39.208h-15.852v-10.385l15.852 10.385zm-14.852-1h11.5l-11.5-7.534v7.534z"/>	</g>			<circle cy="19.203" cx="23.204" r="16.506" fill="#fff"/>			<path d="m23.204 36.208c-9.377 0-17.006-7.629-17.006-17.006s7.629-17.005 17.006-17.005c9.376 0 17.005 7.628 17.005 17.005 0 9.378-7.629 17.006-17.005 17.006zm0-33.011c-8.826 0-16.006 7.18-16.006 16.005s7.18 16.006 16.006 16.006 16.005-7.182 16.005-16.006c0-8.825-7.18-16.005-16.005-16.005z" fill="#004F9F"/>			<circle cy="19.203" cx="23.204" r="3.301" fill="#fff"/>			<path d="m23.204 23.004c-2.096 0-3.801-1.706-3.801-3.802s1.705-3.801 3.801-3.801c2.095 0 3.8 1.705 3.8 3.801s-1.705 3.802-3.8 3.802zm0-6.603c-1.544 0-2.801 1.256-2.801 2.801s1.257 2.802 2.801 2.802 2.8-1.257 2.8-2.802c0-1.544-1.256-2.801-2.8-2.801z" fill="#004F9F"/></svg><svg xmlns:xlink="http://www.w3.org/1999/xlink" id="gart" xml:space="preserve" height="44" viewBox="0.709 1.042 44 44" width="44" version="1.1" y="90" x="0px" enable-background="new 0.709 1.042 44 44"><g fill="#004F9F">		<circle cy="39.987" cx="5.696" r="3.739"/>		<path d="m5.696 44.226c-2.337 0-4.238-1.901-4.238-4.239 0-2.337 1.901-4.238 4.238-4.238s4.239 1.901 4.239 4.238c0.001 2.338-1.901 4.239-4.239 4.239zm0-7.477c-1.786 0-3.238 1.453-3.238 3.238 0 1.786 1.453 3.239 3.238 3.239 1.786 0 3.239-1.453 3.239-3.239 0.001-1.785-1.453-3.238-3.239-3.238z"/>		<circle cy="39.987" cx="16.914" r="3.739"/>		<path d="m16.914 44.226c-2.337 0-4.239-1.901-4.239-4.239 0-2.337 1.901-4.238 4.239-4.238 2.337 0 4.238 1.901 4.238 4.238 0 2.338-1.902 4.239-4.238 4.239zm0-7.477c-1.786 0-3.239 1.453-3.239 3.238 0 1.786 1.453 3.239 3.239 3.239s3.238-1.453 3.238-3.239c0-1.785-1.453-3.238-3.238-3.238z"/>		<circle cy="39.987" cx="28.129" r="3.739"/>		<path d="m28.129 44.226c-2.337 0-4.238-1.901-4.238-4.239 0-2.337 1.901-4.238 4.238-4.238 2.338 0 4.239 1.901 4.239 4.238 0.001 2.338-1.901 4.239-4.239 4.239zm0-7.477c-1.785 0-3.238 1.453-3.238 3.238 0 1.786 1.453 3.239 3.238 3.239 1.786 0 3.239-1.453 3.239-3.239 0.001-1.785-1.452-3.238-3.239-3.238z"/>		<circle cy="39.987" cx="39.345" r="3.739"/>		<path d="m39.345 44.226c-2.337 0-4.237-1.901-4.237-4.239 0-2.337 1.9-4.238 4.237-4.238 2.338 0 4.239 1.901 4.239 4.238 0 2.338-1.901 4.239-4.239 4.239zm0-7.477c-1.785 0-3.237 1.453-3.237 3.238 0 1.786 1.452 3.239 3.237 3.239 1.786 0 3.239-1.453 3.239-3.239 0-1.785-1.453-3.238-3.239-3.238z"/>	<rect y="32.542" x="2.209" height="1" width="40.875"/>	<path d="m12.961 30.822c-0.072-0.078-7.079-7.911-0.002-15.751 2.076-2.301 3.053-4.652 2.902-6.99-0.221-3.429-2.83-5.701-2.856-5.723l0.649-0.761c0.12 0.103 2.95 2.553 3.204 6.407 0.172 2.622-0.89 5.224-3.157 7.737-6.461 7.159-0.269 14.114-0.002 14.407l-0.738 0.674z"/>	<path d="m17.479 30.822c-0.072-0.078-7.079-7.911-0.002-15.751 2.08-2.304 3.056-4.66 2.902-7.001-0.227-3.437-2.829-5.689-2.855-5.711l0.648-0.762c0.12 0.103 2.951 2.553 3.204 6.407 0.173 2.622-0.89 5.224-3.157 7.737-6.475 7.174-0.27 14.114-0.002 14.406l-0.738 0.675z"/>	<path d="m22.153 30.822c-0.072-0.078-7.08-7.911-0.002-15.751 2.076-2.301 3.052-4.652 2.902-6.99-0.22-3.429-2.829-5.701-2.855-5.723l0.649-0.761c0.12 0.103 2.951 2.553 3.204 6.407 0.173 2.622-0.89 5.224-3.157 7.737-6.476 7.174-0.27 14.114-0.002 14.406l-0.739 0.675z"/>	<path d="m31.737 20.629l-0.975-0.226c0.435-1.876 1.416-3.671 2.915-5.333 0.658-0.729 1.215-1.475 1.652-2.217l0.861 0.509c-0.472 0.799-1.068 1.599-1.771 2.378-1.383 1.535-2.287 3.18-2.682 4.889z"/>	<path d="m37.556 9.368l-0.996-0.098c0.403-4.104-2.804-6.885-2.836-6.912l0.648-0.762c0.149 0.127 3.637 3.154 3.184 7.772z"/>	<path d="m26.913 24.456c-0.563-3.378 0.455-6.536 3.026-9.385l0.742 0.67c-2.356 2.612-3.293 5.489-2.782 8.551l-0.986 0.164z"/>	<path d="m26.359 30.822c-0.151-0.165-3.697-4.105-3.113-9.278l0.994 0.112c-0.534 4.725 2.823 8.453 2.857 8.49l-0.738 0.676z"/></g></svg><svg xmlns:xlink="http://www.w3.org/1999/xlink" id="laboratoria" xml:space="preserve" height="44" viewBox="-1.677 0.125 44 44" width="44" version="1.1" y="134" x="0px" enable-background="new -1.677 0.125 44 44">	<path d="m35.823 10.125v19.32c0 1.304-1.45 2.18-2.805 2.18h0.392c-1.271 0-2.587-0.815-2.587-2.18v-19.32h-1v19.32c0 1.783 1.575 3.18 3.587 3.18h-0.392c1.838 0 3.805-1.277 3.805-3.18v-19.32h-1z" fill="#004F9F"/>	<path d="m27.054 43.625h-23.34c-1.396 0-2.461-0.512-2.998-1.441-0.572-0.991-0.456-2.329 0.319-3.671l9.788-21.608v-12.78c0-0.276 0.224-0.5 0.5-0.5h9c0.276 0 0.5 0.224 0.5 0.5v12.785l9.374 21.655c0.679 1.168 0.755 2.436 0.184 3.425-0.6 1.038-1.813 1.635-3.327 1.635zm-15.231-39v12.387c0 0.071-0.015 0.142-0.044 0.207l-9.854 21.75c-0.614 1.068-0.73 2.042-0.342 2.715 0.351 0.607 1.108 0.941 2.132 0.941h23.341c1.146 0 2.044-0.414 2.461-1.136 0.393-0.682 0.318-1.562-0.21-2.477l-9.441-21.801c-0.027-0.063-0.041-0.13-0.041-0.199v-12.387h-8.002z" fill="#004F9F"/>			<path d="m23.431 3.625c0 1.071-2.877 2-3.948 2h-9.413c-1.072 0-1.947-0.929-1.947-2s0.875-2 1.947-2h11.414c1.07 0 1.947 0.929 1.947 2z" fill="#fff"/>			<path d="m21.484 5.625h-11.414c-1.327 0-2.447-1.145-2.447-2.5s1.121-2.5 2.447-2.5h11.414c1.326 0 2.447 1.145 2.447 2.5s-1.121 2.5-2.447 2.5zm-11.414-4c-0.785 0-1.447 0.687-1.447 1.5s0.663 1.5 1.447 1.5h11.414c0.784 0 1.447-0.687 1.447-1.5s-0.663-1.5-1.447-1.5h-11.414z" fill="#004F9F"/>			<path d="m36.376 10.625h-6.106c-1.35 0-2.447-1.098-2.447-2.447v-0.106c0-1.35 1.098-2.447 2.447-2.447h6.105c1.35 0 2.447 1.098 2.447 2.447v0.105c0.001 1.35-1.097 2.448-2.446 2.448zm-6.106-4c-0.798 0-1.447 0.649-1.447 1.447v0.105c0 0.798 0.649 1.447 1.447 1.447h6.105c0.798 0 1.447-0.649 1.447-1.447v-0.105c0-0.798-0.649-1.447-1.447-1.447h-6.105z" fill="#004F9F"/>	<path d="m31.823 16.625v12c0 0.5 0.75 1.75 1.5 1.75s1.5-1.25 1.5-1.75v-12h-3z" fill="#004F9F"/>	<path d="m24.74 32.625h-18.582l-2.183 4.799c-0.957 1.658-0.175 3.201 1.741 3.201h19.336c1.915 0 2.698-1.543 1.74-3.201l-2.052-4.799z" fill="#004F9F"/></svg><svg xmlns:xlink="http://www.w3.org/1999/xlink" id="laminat" xml:space="preserve" height="44" viewBox="0.709 0.458 44 44" width="44" version="1.1" y="178" x="0px" enable-background="new 0.709 0.458 44 44"><g fill="#004F9F">	<rect y="39.958" x="2.209" height="3" width="41"/>	<polygon points="43.209 36.958 17.893 36.958 2.125 22.853 2.792 22.107 18.275 35.958 43.209 35.958"/>	<rect y="35.958" x="2.209" height="1" width="31"/>	<path d="m18.547 32.55l-6.338-12.472v-19.12h12l-0.045 19.207-5.617 12.385zm-5.338-12.711l5.287 10.403 4.713-10.391v-17.893h-10v17.881z"/>	<rect y="19.958" x="12.834" height="1" width="10.75"/></g></svg><svg xmlns:xlink="http://www.w3.org/1999/xlink" id="obrobka" xml:space="preserve" height="44" viewBox="0.458 0.458 44 44" width="44" version="1.1" y="222" x="0px" enable-background="new 0.458 0.458 44 44"><g stroke="#004F9F" stroke-miterlimit="10">	<line y2="42.208" x2="42.387" y1="1.529" x1="1.708" fill="none"/>	<path d="m37.458 25.142c0 5.852-4.646 10.598-10.5 10.598s-10.5-4.746-10.5-10.598v-6.684h21v6.684z" fill="#004F9F"/>	<path d="m31.28 37.895c-1.267 0.536-2.662 0.833-4.125 0.833" fill="#fff"/>	<path d="m23.684 38.546c-5.854 0-10.599-4.745-10.599-10.6" fill="none"/><g fill="#fff">	<circle cx="26.958" cy="19.531" r="10.598"/>	<path d="m9.752 33.873c-1.143-1.691-1.811-3.729-1.811-5.926 0-1.443 0.291-2.824 0.814-4.079"/>	<path d="m30.458 17.193c0 2.108-1.392 3.818-3.5 3.818-2.11 0-3.5-1.71-3.5-3.818v-15.735h7v15.735z"/></g></g></svg><svg xmlns:xlink="http://www.w3.org/1999/xlink" id="piskostruika" xml:space="preserve" height="45" viewBox="0 0 45.418 45.417" width="45" version="1.1" y="266" x="0px" enable-background="new 0 0 45.418 45.417">	<rect y="1.417" x=".223" height="42.792" width=".973" fill="#004F9F"/>		<path d="m34.959 26.402l-17.081-5.694 17.081-5.694v11.388zm-13.919-5.694l12.919 4.307v-8.613l-12.919 4.306z" fill="#004F9F"/>			<polyline points="34.209 14.208 44.209 14.208 44.209 27.208 34.209 27.208" fill="#004F9F"/>	<g fill="#004F9F">		<circle cy="20.708" cx="14.459" r="1"/>		<circle cy="20.708" cx="8.834" r="1"/>		<circle cy="20.708" cx="3.209" r="1"/>		<circle cy="30.958" cx="3.209" r="1"/>		<circle cy="10.958" cx="3.209" r="1"/>		<circle cy="25.708" cx="10.959" r="1"/>		<circle cy="25.708" cx="5.334" r="1"/>		<circle cy="15.958" cx="10.959" r="1"/>		<circle cy="15.958" cx="5.334" r="1"/>	</g></svg><svg xmlns:xlink="http://www.w3.org/1999/xlink" id="poriz" xml:space="preserve" height="44" viewBox="0.25 0.458 44 44" width="44" version="1.1" y="311" x="0px" enable-background="new 0.25 0.458 44 44">	<rect y="41.958" x="11.75" height="1" width="31" fill="#004F9F"/>	<path d="m11.75 43.028v-18.07h12v9.841l-12 8.229zm1-17.07v15.171l10-6.857v-8.313h-10z" fill="#004F9F"/>		<rect y="17.958" x="9.75" height="11" width="16" fill="#fff"/>		<path d="m26.75 28.958h-17v-12h17v12zm-16-1h15v-10h-15v10z" fill="#004F9F"/>		<polygon points="0.75 1.958 0.75 12.379 6.728 21.958 29.355 21.958 32.75 12.379 32.75 1.958" fill="#fff"/>		<path d="m29.685 21.958h-23.24l-5.695-9.44v-11.56h33l-0.04 11.618-4.025 9.382zm-22.675-1h22.017l3.724-8.682v-10.318h-31v10.282l5.259 8.718z" fill="#004F9F"/>	<rect y="1.958" x="19.75" height="11" width="8" fill="#004F9F"/>	<polygon points="19.75 13.958 19.75 21.958 23.872 21.958 27.599 13.958" fill="#004F9F"/></svg><svg xmlns:xlink="http://www.w3.org/1999/xlink" id="sklad" xml:space="preserve" height="44" viewBox="0.708 0.708 44 44" width="44" version="1.1" y="355" x="0px" enable-background="new 0.708 0.708 44 44">	<rect height="28" width="28" stroke="#004F9F" stroke-miterlimit="10" y="2.708" x="9.708" fill="#fff"/>	<rect height="28" width="28" stroke="#004F9F" stroke-miterlimit="10" y="15.708" x="15.708" fill="none"/>	<rect y="2.208" x="2.208" height="42" width="3" fill="#004F9F"/></svg><svg xmlns:xlink="http://www.w3.org/1999/xlink" id="sulfidnikel" xml:space="preserve" height="44" viewBox="0.626 -0.145 44 44" width="44" version="1.1" y="399" x="0px" enable-background="new 0.626 -0.145 44 44">		<rect transform="matrix(.2425 .9701 -.9701 .2425 21.372 4.4049)" height="1" width="18.532" y="15.389" x="-1.401" fill="#004F9F"/>		<rect transform="matrix(.3722 .9281 -.9281 .3722 35.972 -12.496)" height="28.203" width="1" y="6.242" x="26.724" fill="#004F9F"/>		<circle cy="25.745" cx="11.765" r="5.677" fill="#fff"/>		<path d="m11.765 31.923c-3.406 0-6.178-2.771-6.178-6.178s2.771-6.177 6.178-6.177 6.177 2.771 6.177 6.177-2.771 6.178-6.177 6.178zm0-11.355c-2.855 0-5.178 2.323-5.178 5.177 0 2.855 2.323 5.178 5.178 5.178s5.177-2.322 5.177-5.178c0-2.854-2.322-5.177-5.177-5.177z" fill="#004F9F"/>		<circle cy="14.469" cx="40.23" r="3.312" fill="#fff"/>		<path d="m40.23 18.281c-2.102 0-3.811-1.71-3.811-3.812s1.709-3.812 3.811-3.812c2.103 0 3.813 1.71 3.813 3.812s-1.71 3.812-3.813 3.812zm0-6.624c-1.55 0-2.811 1.261-2.811 2.812 0 1.55 1.261 2.812 2.811 2.812 1.551 0 2.813-1.261 2.813-2.812s-1.262-2.812-2.813-2.812z" fill="#004F9F"/>		<circle cy="5.165" cx="5.377" r="3.312" fill="#fff"/>		<path d="m5.377 8.977c-2.102 0-3.812-1.71-3.812-3.812s1.71-3.812 3.812-3.812 3.812 1.71 3.812 3.812-1.71 3.812-3.812 3.812zm0-6.624c-1.551 0-2.812 1.261-2.812 2.812s1.261 2.812 2.812 2.812c1.55 0 2.812-1.261 2.812-2.812s-1.261-2.812-2.812-2.812z" fill="#004F9F"/>	<g fill="#004F9F">		<path d="m20.126 42.384v-11.029h2.102l2.25 4.129c0.645 1.143 1.287 2.871 1.771 3.871h0.048c-0.161-2-0.171-3.02-0.171-4.644v-3.356h2v11h-2.36l-2.316-4.168c-0.643-1.158-1.323-2.832-1.323-2.832 0.065 1.432 0 1.994 0 3.764v3.236l-2.001 0.029z"/>		<path d="m32.956 32.33c0 0.676-0.514 1.223-1.317 1.223-0.773 0-1.289-0.547-1.271-1.223-0.018-0.707 0.498-1.239 1.286-1.239 0.79 0 1.286 0.532 1.302 1.239zm-2.83 10.025v-8h2v8h-2z"/>		<path d="m36.594 39.857c0.659 0.338 1.673 0.676 2.718 0.676 1.125 0 1.721-0.467 1.721-1.174 0-0.677-0.514-1.063-1.816-1.528-1.802-0.628-2.977-1.624-2.977-3.201 0-1.85 1.544-3.266 4.102-3.266 1.222 0 2.122 0.258 2.768 0.547l-0.548 1.978c-0.434-0.209-1.207-0.514-2.268-0.514-1.063 0-1.576 0.482-1.576 1.046 0 0.691 0.611 0.996 2.011 1.528 1.913 0.708 2.815 1.705 2.815 3.233 0 1.817-1.4 3.361-4.376 3.361-1.239 0-2.461-0.322-3.071-0.66l0.497-2.026z"/>	</g></svg></svg>
