<?xml version="1.0"?>
<!--Icons from directory ""-->
<svg xmlns="http://www.w3.org/2000/svg" width="24" height="72" viewBox="0 0 24 72"><svg xmlns:ev="http://www.w3.org/2001/xml-events" xmlns:xlink="http://www.w3.org/1999/xlink" id="date" xml:space="preserve" height="24" viewBox="-4 -3.5 24 24" width="24" version="1.1" y="0" x="0px" enable-background="new -4 -3.5 24 24"><path d="m0 17v-15h2v3h4v-3h4v3h4v-3h2v15h-16zm15-10h-14v9h14v-9zm-9 4h-2v-2h2v2zm0 3h-2v-2h2v2zm3-3h-2v-2h2v2zm0 3h-2v-2h2v2zm3-3h-2v-2h2v2zm0 3h-2v-2h2v2zm-1-14h2v4h-2v-4zm-8 0h2v4h-2v-4z" fill="#2F5973"/></svg><svg xmlns:ev="http://www.w3.org/2001/xml-events" xmlns:xlink="http://www.w3.org/1999/xlink" id="glass" xml:space="preserve" height="24" viewBox="-4 -2 24 24" width="24" version="1.1" y="24" x="0px" enable-background="new -4 -2 24 24"><path d="m0 20v-20h16v20h-16zm1-1h6.805l3.57-18h-10.375v18z" fill="#2F5973"/></svg><svg xmlns:ev="http://www.w3.org/2001/xml-events" xmlns:xlink="http://www.w3.org/1999/xlink" id="map" xml:space="preserve" height="24" viewBox="-3.542 -0.5 24 24" width="24" version="1.1" y="48" x="0px" enable-background="new -3.542 -0.5 24 24"><path d="m15.365 12.551l-6.907 10.949-6.85-10.786s-1.15-2.668-1.15-4.186c0-4.418 3.582-8 8-8s8 3.582 8 8c0.001 1.469-0.401 2.84-1.093 4.023zm-6.907-7.051c-1.59 0-3 1.41-3 3s1.41 3 3 3 3-1.379 3-2.97-1.409-3.03-3-3.03z" fill="#2F5973"/></svg></svg>
