<svg xmlns="http://www.w3.org/2000/svg" width="94.978" height="85" viewBox="0 0 94.978 85"><path fill="#fff" d="M37.739 12.672l3.122-3h4.513l-2.856 3h-4.779zm8.587-4l1.904-2h-4.246l-2.082 2h4.424zm-7.615 8l2.855-3h-4.868l-3.122 3h5.135zm11.659-11h4.156l.838-1h-4.067l-.927 1zm-15.467 15l2.855-3h-5.223l-3.122 3h5.49zm10.121-15h4.157l.952-1h-4.068l-1.041 1zm23.162 0h4.156l.457-1h-4.067l-.546 1zm5.344 0h4.157l.343-1h-4.068l-.432 1zm-11.283 0h4.157l.583-1h-4.068l-.672 1zm-5.939 0h4.157l.711-1h-4.068l-.8 1zm22.883-1l-.317 1h4.158l.229-1h-4.07zm-48.095 20l2.855-3h-5.579l-3.122 3h5.846zm52.311-15l-.609 3h4.779l.342-3h-4.512zm3.142 12h-5.579l-.609 3h5.845l.343-3zm-4.766-4l-.609 3h5.49l.343-3h-5.224zm.812-4l-.609 3h5.134l.343-3h-4.868zm1.827-9l-.203 1h4.157l.114-1h-4.068zm-.405 2l-.406 2h4.423l.229-2h-4.246zm-26.954 15h-5.579l-2.018 3h5.845l1.752-3zm22.313 0h-5.579l-.952 3h5.846l.685-3zm-38.252 0h-5.578l-2.779 3h5.845l2.512-3zm7.969 0h-5.579l-2.399 3h5.845l2.133-3zm15.939 0h-5.578l-1.638 3h5.845l1.371-3zm7.172 0h-5.579l-1.294 3h5.845l1.028-3zm-20.268-4h-5.223l-2.398 3h5.49l2.131-3zm23.01-4h-4.868l-1.294 3h5.134l1.028-3zm-6.259 0h-4.867l-1.638 3h5.134l1.371-3zm3.117-4l-1.294 3h4.779l1.028-3h-4.513zm-10.071 4h-4.868l-2.018 3h5.134l1.752-3zm4.815-5h4.423l.914-2h-4.245l-1.092 2zm6.551-2l-.863 2h4.423l.686-2h-4.246zm-20.452 10l2.132-3h-4.868l-2.399 3h5.135zm41.074-15v-1h-3.713l-.089 1h3.802zm-36.183 11h4.779l1.751-3h-4.513l-2.017 3zm2.691-4h4.424l1.167-2h-4.246l-1.345 2zm-9.518 4h4.779l2.132-3h-4.512l-2.399 3zm19.803-3h-4.512l-1.637 3h4.778l1.371-3zm3.061 8h-5.223l-1.295 3h5.49l1.028-3zm6.716 0h-5.224l-.952 3h5.49l.686-3zm-1.734-11l-.634 2h4.424l.457-2h-4.247zm-11.698 11h-5.223l-1.638 3h5.489l1.372-3zm-7.461 0h-5.224l-2.018 3h5.489l1.753-3zm16.938-4l-.952 3h5.135l.685-3h-4.868zm-22.426-5h4.423l1.421-2h-4.246l-1.598 2zm23.695 1l-.952 3h4.779l.686-3h-4.513zm-28.942 3l2.513-3h-4.512l-2.779 3h4.778zm36.166-10l-.203 1h3.979l.114-1h-3.89zm-37.239 6h4.423l1.675-2h-4.245l-1.853 2zm-5.629 12l2.513-3h-5.223l-2.779 3h5.489zm3.351-4l2.513-3h-4.867l-2.779 3h5.133zm25.521 9h-5.934l-2.158 5h6.378l1.714-5zm-17.844-24l.952-1h-3.713l-1.041 1h3.802zm35.865 12l-.267 3h5.134v-3h-4.867zm-9.796-12l.343-1h-3.713l-.432 1h3.802zm-15.75 0l.711-1h-3.713l-.8 1h3.802zm-5.432 0l.838-1h-3.712l-.927 1h3.801zm26.07 0l.229-1h-3.715l-.317 1h3.803zm-9.777 0l.457-1h-3.712l-.546 1h3.801zm14.664 0l.114-1h-3.713l-.203 1h3.802zm.642 5l-.178 2h4.424v-2h-4.246zm-.267 3l-.266 3h4.779v-3h-4.513zm.445-5l-.089 1h4.157v-1h-4.068zm.178-2l-.089 1h3.979v-1h-3.89zm-21.092-1l.584-1h-3.713l-.673 1h3.802zm-6.428 30l-2.589 6h7l2.056-6h-6.467zm8.314 0l-1.904 6h7l1.371-6h-6.467zm-22.523-30l1.066-1h-3.713l-1.155 1h3.802zm39.152 30l-.533 6h7v-6h-6.467zm-33.258 0l-3.274 6h7l2.741-6h-6.467zm24.943 0l-1.218 6h7l.686-6h-6.468zm-69.288 0l-6.93 6h7l6.396-6h-6.466zm8.314 0l-6.244 6h7l5.711-6h-6.467zm26.792 0l-4.036 6h7l3.503-6h-6.467zm-18.477 0l-5.559 6h7l5.026-6h-6.467zm9.239 0l-4.797 6h7l4.265-6h-6.468zm16.704-28h3.979l.837-1h-3.89l-.926 1zm36.275 14l-.267 3h5.49v-3h-5.223zm-46.508-14h3.979l1.066-1h-3.891l-1.154 1zm5.116 0h3.979l.952-1h-3.891l-1.04 1zm-6.467 5l2.132-2h-4.246l-2.31 2h4.424zm-4.265 4l3.198-3h-4.512l-3.465 3h4.779zm-4.264 4l3.198-3h-4.868l-3.465 3h5.135zm42.284-13h3.979l.343-1h-3.891l-.431 1zm-5.117 0h3.979l.457-1h-3.89l-.546 1zm-41.432 17l3.198-3h-5.223l-3.465 3h5.49zm35.747-17h3.979l.584-1h-3.891l-.672 1zm-5.685 0h3.979l.711-1h-3.891l-.799 1zm21.602 0h3.98l.229-1h-3.892l-.317 1zm-35.672 2l1.066-1h-4.068l-1.155 1h4.157zm34.626 20h-5.935l-1.586 5h6.378l1.143-5zm7.629 0h-5.934l-1.016 5h6.378l.572-5zm2.051-4l-.267 3h5.845v-3h-5.578zm-24.939 4h-5.934l-2.729 5h6.378l2.285-5zm30.517 0h-5.934l-.444 5h6.378v-5zm-70.14-1l3.198-3h-5.578l-3.465 3h5.845zm-6.397 6l5.331-5h-5.934l-5.774 5h6.377zm37.543-5h-5.934l-3.364 5h6.378l2.92-5zm-24.583 0h-5.934l-5.204 5h6.378l4.76-5zm7.629 0h-5.934l-4.632 5h6.378l4.188-5zm8.477 0h-5.934l-3.998 5h6.378l3.554-5zM17.721 68.672h-4.254c-7.277 0-10.616-4.698-12.004-7.297-.975-1.866-1.463-3.915-1.463-6.001 0-2.452.675-4.939 2.025-7.025 1.201-1.83 4.614-5.677 11.441-5.677h4.254v7.177h-2.754c-1.688 0-4.051.183-5.589 2.452-.6.915-.9 1.976-.9 3.073 0 1.062.3 2.159.9 3.037 1.576 2.269 4.089 2.415 5.589 2.415h2.754v7.846zm2-26h8.824v9.043h.375c.488 0 .825-.914 1.275-2.232l2.288-6.811h8.217l-2.363 6.921c-.75 2.231-.788 2.708-2.363 4.245 3.938 1.17 3.748 4.903 3.748 7.354v7.479h-7.874v-7.37c0-.987.037-2.231-.451-2.854-.562-.731-1.65-.731-2.1-.731h-.751v10.956h-8.824v-26zm45 26h-8.755v-18.823h-.788c-.75 0-1.351.037-1.988.769-.638.769-.6 1.428-.6 2.305v15.75h-10.692v-7.846h2.664v-6.33c0-3.439.112-6.811 3.602-9.593 2.813-2.231 5.889-2.231 8.215-2.231h8.342v25.999zm2.798-13.334c0-7.246 6.189-12.666 13.729-12.666s13.729 5.42 13.729 12.666c0 7.245-6.189 13.246-13.729 13.246s-13.729-6.001-13.729-13.246zm13.729 5.122c2.889 0 5.252-2.305 5.252-5.122s-2.363-5.123-5.252-5.123c-2.888 0-5.252 2.306-5.252 5.123s2.364 5.122 5.252 5.122zm-79.464 24.212v-8.488c0-3.048 1.955-4.512 4.824-4.512 3.223 0 4.866 1.828 4.866 4.243 0 .729-.167 1.457-.541 2.108-1.165 1.975-3.798 2.336-5.44 2.336h-1.726v-1.688h1.954c1.893 0 3.715-1.3 3.715-2.795 0-1.457-.915-2.519-2.849-2.519-1.789 0-2.849.985-2.849 2.749v8.564h-1.954zm25.283-11.121h-3.431c-.749 0-1.747-.077-2.412.556-.25.229-.479.333-.479.927 0 .288.063.575.208.844.624 1.188 1.872 1.15 2.766 1.15h3.348v1.687h-3.182c-.936 0-1.954-.02-2.765.575-.375.268-.853.824-.853 1.763 0 .364.083.748.27 1.073.645 1.112 1.955.86 2.641.86h3.889v1.687h-4.013c-1.206 0-2.641-.134-3.784-1.342-.707-.728-.957-1.263-.957-2.144 0-2.435 1.871-3.201 2.287-3.354-1.081-.633-1.809-1.706-1.809-3.048 0-1.149.52-1.598.978-2 .977-.863 2.246-.921 3.535-.921h3.764v1.687zm16.654 0h-2.184c-2.662 0-4.366 1.1-5.115 2.384-.416.709-.624 1.533-.624 2.357 0 1.055.271 2.108.915 2.971 1.331 1.821 3.223 1.723 4.595 1.723h2.413v1.687h-2.163c-1.976 0-4.907.079-6.778-2.796-.707-1.073-1.019-2.338-1.019-3.584 0-2.779 1.726-4.339 3.389-5.278 1.331-.767 3.847-1.15 5.448-1.15h1.123v1.686zm7.955-1.668v3.898c0 .671.083 1.514.957 2.069.624.403 1.497.821 2.453.821h2.636v1.687h-2.594c-.998 0-2.412-.36-3.514-.974-1.809-.997-1.892-2.837-1.892-3.93v-3.572h1.954zm2.71 11.102c.957 0 2.038-.019 2.766-.46.998-.613.615-1.281.615-1.972v-8.671h1.955v8.191c0 1.457 0 2.643-1.684 3.755-1.248.824-2.258.843-3.651.843h-3.557v-1.687h3.556zm13.347 1.687v-8.488c0-3.048 1.955-4.512 4.824-4.512 3.223 0 4.865 1.828 4.865 4.243 0 .729-.166 1.457-.541 2.108-1.165 1.975-3.078 2.336-4.72 2.336h-2.44v-1.688h2.669c1.892 0 2.994-1.3 2.994-2.795 0-1.457-.915-2.519-2.849-2.519-1.789 0-2.849.985-2.849 2.749v8.564h-1.953zm25.988-11.121h-1.683c-2.662 0-4.366 1.1-5.115 2.384-.416.709-.624 1.533-.624 2.357 0 1.055.271 2.108.915 2.971 1.331 1.821 3.223 1.723 4.595 1.723h1.912v1.687h-1.662c-1.976 0-4.907.079-6.778-2.796-.707-1.073-1.019-2.338-1.019-3.584 0-2.779 1.726-4.339 3.389-5.278 1.331-.767 3.036-1.15 4.637-1.15h1.433v1.686z"/></svg>