<svg xmlns="http://www.w3.org/2000/svg" width="94.978" height="85" viewBox="0 0 94.978 85"><path fill="#fff" d="M37.739 12.672l3.122-3h4.513l-2.856 3h-4.779zm8.587-4l1.904-2h-4.246l-2.082 2h4.424zm-7.615 8l2.855-3h-4.868l-3.122 3h5.135zm11.659-11h4.156l.838-1h-4.067l-.927 1zm-15.467 15l2.855-3h-5.223l-3.122 3h5.49zm10.121-15h4.157l.952-1h-4.068l-1.041 1zm23.162 0h4.156l.457-1h-4.067l-.546 1zm5.344 0h4.157l.343-1h-4.068l-.432 1zm-11.283 0h4.157l.583-1h-4.068l-.672 1zm-5.939 0h4.157l.711-1h-4.068l-.8 1zm22.883-1l-.317 1h4.158l.229-1h-4.07zm-48.095 20l2.855-3h-5.579l-3.122 3h5.846zm52.311-15l-.609 3h4.779l.342-3h-4.512zm3.142 12h-5.579l-.609 3h5.845l.343-3zm-4.766-4l-.609 3h5.49l.343-3h-5.224zm.812-4l-.609 3h5.134l.343-3h-4.868zm1.827-9l-.203 1h4.157l.114-1h-4.068zm-.405 2l-.406 2h4.423l.229-2h-4.246zm-26.954 15h-5.579l-2.018 3h5.845l1.752-3zm22.313 0h-5.579l-.952 3h5.846l.685-3zm-38.252 0h-5.578l-2.779 3h5.845l2.512-3zm7.969 0h-5.579l-2.399 3h5.845l2.133-3zm15.939 0h-5.578l-1.638 3h5.845l1.371-3zm7.172 0h-5.579l-1.294 3h5.845l1.028-3zm-20.268-4h-5.223l-2.398 3h5.49l2.131-3zm23.01-4h-4.868l-1.294 3h5.134l1.028-3zm-6.259 0h-4.867l-1.638 3h5.134l1.371-3zm3.117-4l-1.294 3h4.779l1.028-3h-4.513zm-10.071 4h-4.868l-2.018 3h5.134l1.752-3zm4.815-5h4.423l.914-2h-4.245l-1.092 2zm6.551-2l-.863 2h4.423l.686-2h-4.246zm-20.452 10l2.132-3h-4.868l-2.399 3h5.135zm41.074-15v-1h-3.713l-.089 1h3.802zm-36.183 11h4.779l1.751-3h-4.513l-2.017 3zm2.691-4h4.424l1.167-2h-4.246l-1.345 2zm-9.518 4h4.779l2.132-3h-4.512l-2.399 3zm19.803-3h-4.512l-1.637 3h4.778l1.371-3zm3.061 8h-5.223l-1.295 3h5.49l1.028-3zm6.716 0h-5.224l-.952 3h5.49l.686-3zm-1.734-11l-.634 2h4.424l.457-2h-4.247zm-11.698 11h-5.223l-1.638 3h5.489l1.372-3zm-7.461 0h-5.224l-2.018 3h5.489l1.753-3zm16.938-4l-.952 3h5.135l.685-3h-4.868zm-22.426-5h4.423l1.421-2h-4.246l-1.598 2zm23.695 1l-.952 3h4.779l.686-3h-4.513zm-28.942 3l2.513-3h-4.512l-2.779 3h4.778zm36.166-10l-.203 1h3.979l.114-1h-3.89zm-37.239 6h4.423l1.675-2h-4.245l-1.853 2zm-5.629 12l2.513-3h-5.223l-2.779 3h5.489zm3.351-4l2.513-3h-4.867l-2.779 3h5.133zm25.521 9h-5.934l-2.158 5h6.378l1.714-5zm-17.844-24l.952-1h-3.713l-1.041 1h3.802zm35.865 12l-.267 3h5.134v-3h-4.867zm-9.796-12l.343-1h-3.713l-.432 1h3.802zm-15.75 0l.711-1h-3.713l-.8 1h3.802zm-5.432 0l.838-1h-3.712l-.927 1h3.801zm26.07 0l.229-1h-3.715l-.317 1h3.803zm-9.777 0l.457-1h-3.712l-.546 1h3.801zm14.664 0l.114-1h-3.713l-.203 1h3.802zm.642 5l-.178 2h4.424v-2h-4.246zm-.267 3l-.266 3h4.779v-3h-4.513zm.445-5l-.089 1h4.157v-1h-4.068zm.178-2l-.089 1h3.979v-1h-3.89zm-21.092-1l.584-1h-3.713l-.673 1h3.802zm-6.428 30l-2.589 6h7l2.056-6h-6.467zm8.314 0l-1.904 6h7l1.371-6h-6.467zm-22.523-30l1.066-1h-3.713l-1.155 1h3.802zm39.152 30l-.533 6h7v-6h-6.467zm-33.258 0l-3.274 6h7l2.741-6h-6.467zm24.943 0l-1.218 6h7l.686-6h-6.468zm-69.288 0l-6.93 6h7l6.396-6h-6.466zm8.314 0l-6.244 6h7l5.711-6h-6.467zm26.792 0l-4.036 6h7l3.503-6h-6.467zm-18.477 0l-5.559 6h7l5.026-6h-6.467zm9.239 0l-4.797 6h7l4.265-6h-6.468zm16.704-28h3.979l.837-1h-3.89l-.926 1zm36.275 14l-.267 3h5.49v-3h-5.223zm-46.508-14h3.979l1.066-1h-3.891l-1.154 1zm5.116 0h3.979l.952-1h-3.891l-1.04 1zm-6.467 5l2.132-2h-4.246l-2.31 2h4.424zm-4.265 4l3.198-3h-4.512l-3.465 3h4.779zm-4.264 4l3.198-3h-4.868l-3.465 3h5.135zm42.284-13h3.979l.343-1h-3.891l-.431 1zm-5.117 0h3.979l.457-1h-3.89l-.546 1zm-41.432 17l3.198-3h-5.223l-3.465 3h5.49zm35.747-17h3.979l.584-1h-3.891l-.672 1zm-5.685 0h3.979l.711-1h-3.891l-.799 1zm21.602 0h3.98l.229-1h-3.892l-.317 1zm-35.672 2l1.066-1h-4.068l-1.155 1h4.157zm34.626 20h-5.935l-1.586 5h6.378l1.143-5zm7.629 0h-5.934l-1.016 5h6.378l.572-5zm2.051-4l-.267 3h5.845v-3h-5.578zm-24.939 4h-5.934l-2.729 5h6.378l2.285-5zm30.517 0h-5.934l-.444 5h6.378v-5zm-70.14-1l3.198-3h-5.578l-3.465 3h5.845zm-6.397 6l5.331-5h-5.934l-5.774 5h6.377zm37.543-5h-5.934l-3.364 5h6.378l2.92-5zm-24.583 0h-5.934l-5.204 5h6.378l4.76-5zm7.629 0h-5.934l-4.632 5h6.378l4.188-5zm8.477 0h-5.934l-3.998 5h6.378l3.554-5zM18.691 49.691l-5.607-.02c-1.446-.005-2.53.186-2.535 1.329-.003.788 1.48 1.66 2.442 2.334 2.564 1.823 4.566 3.564 5.603 5.5.559 1.065.916 2.249.911 3.433-.005 1.261-.535 2.398-.978 3.583-1.806 4.821-7.326 3.835-10.982 3.821h-6.79l.03-7.867 4.861.019c1.808.006 3.735.289 3.741-1.288.002-.709-.398-.947-2.521-2.571-2.404-1.821-4.206-3.326-5.163-5.222-.559-1.066-.795-2.289-.791-3.511.006-1.576.495-3.151 1.503-4.37 2.422-2.908 6.358-2.976 8.93-2.966l7.375.025-.029 7.771zm4.225-8.019l8.758.031-.038 10.398.402.002c.522.002.888-.982 1.375-2.399l2.479-7.985 8.798.032-2.56 8.103c-.813 2.401-.855 2.914-2.548 4.563 4.494 1.356 4.147 5.691 4.138 7.938v7.316h-8.617l.028-7.23c.013-3.429-.628-3.864-2.717-3.872l-.804-.003-.042 11.105h-8.758l.106-27.999zm33.805.123l-.063 17.021c-.004.946.215 2.089 1.297 2.803.802.515 2.128.401 3.012.405l3.334.012-.03 7.637h-5.183s-6.026.245-8.468-2.089c-2.762-2.612-2.911-5.804-2.899-8.76l.063-17.06 8.937.031zm8.848 14.332c.03-7.805 6.684-14.484 14.759-14.455 8.075.029 14.679 6.757 14.649 14.562s-6.684 13.468-14.759 13.438c-8.074-.029-14.678-5.74-14.649-13.545zm14.683 5.571c3.093.012 5.634-2.463 5.646-5.497.012-3.035-2.51-5.528-5.604-5.539-3.093-.012-5.634 2.463-5.646 5.498s2.511 5.528 5.604 5.538zm-7.293 15.533l.06-.176-.06.176c-.319-.105-.676-.237-.97-.468-.293-.228-.515-.576-.513-1.041 0-.178.056-.464.301-.709.245-.246.662-.426 1.319-.425l5.69-.001v-1.916h-5.041c-1.143 0-2.78.218-3.724 1.49-.359.495-.512 1.151-.512 1.791 0 .597.22 1.203.589 1.686 1.008 1.374 3.344 1.731 5.763 2.525.745.243 1.536.592 1.531 1.585.009.557-.337.903-.725 1.048-.386.151-.824.162-1.136.163h-.226l-5.586-.001v1.785h5.717c1.038-.002 2.48-.08 3.385-1.359.384-.521.536-1.199.536-1.893 0-.651-.221-1.279-.612-1.786-1.002-1.322-3.528-1.758-5.786-2.474zm-9.185-3.103l-.056.087h-.344v-1.543h-1.653v12.072h1.757v-5.663c-.002-2.289.708-3.504 1.552-4.121.842-.618 1.777-.626 2.174-.627h.124v-1.661h-.201c-1.058.006-2.409-.005-3.353 1.456zm27.968 5.264c-.115 1.435-.901 2.637-1.953 3.26-.745.435-1.612.563-2.462.564-.815-.001-1.628-.214-2.312-.618-1.097-.673-1.963-1.996-1.961-3.823 0-1.259.424-2.37 1.175-3.167.75-.799 1.827-1.276 3.098-1.274.907-.004 2.048.19 3.025 1.238l.163.172-6.215 3.413.765 1.466 8.105-4.438c-1.213-2.494-3.456-3.507-5.791-3.512-3.568.005-6.286 2.558-6.289 6.103.001 2.599 1.411 4.579 3.458 5.577.886.423 1.845.647 2.83.647 1.142 0 2.282-.25 3.262-.796.917-.515 2.724-1.828 3.037-4.576l-1.935-.236zm-33.934-.181c.002 1.025.338 2.747-1.347 3.647-.452.249-.976.356-1.472.357-.495-.001-1.019-.108-1.468-.356-1.688-.901-1.766-2.623-1.765-3.648v-6.539h-1.912v6.539c.003 1.73.279 3.789 2.382 5.073.825.492 1.778.716 2.763.716.986 0 1.939-.224 2.763-.716 2.104-1.284 1.965-3.343 1.97-5.073v-6.539h-1.913v6.539zm-31.052-1.98l.06-.176-.061.176c-.318-.105-.675-.237-.968-.468-.293-.228-.516-.576-.513-1.041 0-.178.056-.464.301-.709.244-.246.662-.426 1.318-.425l5.692-.001v-1.916h-5.041c-1.143 0-2.78.218-3.723 1.49-.36.495-.513 1.151-.513 1.791 0 .597.221 1.203.589 1.686 1.008 1.374 3.344 1.731 5.764 2.525.746.243 1.535.592 1.531 1.585.008.557-.338.903-.726 1.048-.387.151-.824.162-1.136.163h-5.608v1.784h5.513c1.037-.002 2.481-.08 3.385-1.359.385-.521.538-1.199.537-1.893 0-.65-.221-1.279-.612-1.786-1.006-1.322-3.531-1.758-5.789-2.474zm-9.183 5.419l-.097-.157.097.157c-.747.436-1.614.564-2.465.565-.813-.001-1.626-.214-2.31-.618-1.097-.674-1.964-1.996-1.962-3.823-.001-1.259.424-2.37 1.176-3.167.749-.799 1.826-1.276 3.096-1.274.908-.004 2.049.19 3.027 1.238l.161.172-6.216 3.413.765 1.466 8.107-4.438c-1.214-2.494-3.457-3.507-5.792-3.512-3.568.005-6.286 2.558-6.289 6.103.002 2.599 1.412 4.579 3.458 5.577.886.424 1.845.648 2.83.648 1.144 0 2.282-.25 3.263-.796.917-.515 2.723-1.828 3.035-4.576l-1.933-.236c-.114 1.434-.901 2.636-1.951 3.258zm-13.406-8.522l-.056.087h-.345v-1.412h-1.808v11.941h1.763v-5.663c-.003-2.289.856-3.504 1.702-4.121.842-.618 1.777-.626 2.174-.627h.124v-1.661h-.202c-1.058.006-2.408-.005-3.352 1.456zm37.19-1.456c-3.512.002-6.314 2.638-6.315 6.103.001 3.464 2.803 6.225 6.315 6.226 3.514-.001 6.314-2.762 6.316-6.226-.002-3.465-2.802-6.101-6.316-6.103zm3.144 9.291c-.767.791-1.861 1.253-3.142 1.253h-.002c-1.269.001-2.364-.455-3.135-1.243-.771-.788-1.217-1.9-1.216-3.198-.001-1.298.444-2.412 1.216-3.199.771-.788 1.866-1.243 3.134-1.242 1.282-.001 2.376.461 3.145 1.253.769.79 1.207 1.903 1.207 3.188 0 1.284-.438 2.397-1.207 3.188z"/></svg>