<?xml version="1.0"?>
<!--Icons from directory ""-->
<svg xmlns="http://www.w3.org/2000/svg" width="41" height="123" viewBox="0 0 41 123"><svg xmlns:xlink="http://www.w3.org/1999/xlink" id="facebook" xml:space="preserve" height="41" viewBox="0 0 41 41" width="41" version="1.1" y="0" x="0px" enable-background="new 0 0 41 41"><path d="m25 17.553h-3.262v-1.735c0-0.653 0.433-0.805 0.736-0.805h2.524v-3.003l-3.227-0.01c-2.856 0-3.507 2.137-3.507 3.505v2.047h-2.264v2.954h2.265v8.493h3.475v-8.493h2.957l0.303-2.953z" fill="#fff"/></svg><svg xmlns:xlink="http://www.w3.org/1999/xlink" id="google" xml:space="preserve" height="41" viewBox="0 0 41 41" width="41" version="1.1" y="41" x="0px" enable-background="new 0 0 41 41"><g fill="#fff">	<path d="m29.609 19.02h-2.609v-2.63c0-0.215-0.176-0.39-0.391-0.39h-1.219c-0.215 0-0.39 0.175-0.39 0.39v2.63h-2.609c-0.215 0-0.391 0.175-0.391 0.39v1.199c0 0.216 0.176 0.391 0.391 0.391h2.702v2.609c0 0.217 0.175 0.391 0.392 0.391h0.915c0.215 0 0.391-0.174 0.391-0.391v-2.609h2.82c0.215 0 0.39-0.176 0.39-0.391v-1.2c-0.001-0.215-0.176-0.389-0.392-0.389z"/>	<path d="m20.018 21.492c-0.592-0.42-1.133-1.036-1.141-1.226 0-0.345 0.03-0.51 0.804-1.112 0.999-0.782 1.549-1.811 1.549-2.898 0-0.985-0.3-1.861-0.813-2.476h0.398c0.082 0 0.163-0.026 0.229-0.074l1.108-0.804c0.139-0.1 0.195-0.276 0.145-0.436-0.053-0.161-0.201-0.271-0.372-0.271h-4.962c-0.542 0-1.095 0.096-1.636 0.282-1.808 0.624-3.073 2.165-3.073 3.747 0 2.241 1.736 3.939 4.057 3.993-0.046 0.178-0.068 0.354-0.068 0.524 0 0.346 0.087 0.673 0.268 0.989h-0.064c-2.212 0-4.208 1.084-4.967 2.699-0.197 0.42-0.298 0.846-0.298 1.264 0 0.408 0.104 0.803 0.311 1.17 0.476 0.853 1.499 1.515 2.882 1.863 0.712 0.182 1.479 0.274 2.275 0.274 0.716 0 1.397-0.092 2.029-0.273 1.966-0.572 3.238-2.021 3.238-3.69 0.001-1.605-0.517-2.566-1.899-3.545zm-6.267 3.671c0-1.166 1.482-2.19 3.171-2.19h0.045c0.367 0.006 0.727 0.061 1.064 0.164 0.115 0.079 0.228 0.155 0.335 0.229 0.782 0.533 1.3 0.886 1.443 1.449 0.034 0.144 0.051 0.285 0.051 0.424 0 1.453-1.083 2.189-3.221 2.189-1.618 0-2.888-0.994-2.888-2.265zm1.537-11.023c0.265-0.301 0.61-0.461 0.998-0.461l0.044 0.001c1.097 0.032 2.146 1.254 2.34 2.725 0.108 0.823-0.075 1.597-0.489 2.068-0.264 0.303-0.605 0.462-1.009 0.462h-0.001-0.019c-1.073-0.033-2.146-1.302-2.337-2.77-0.108-0.821 0.064-1.559 0.473-2.025z"/></g></svg><svg xmlns:xlink="http://www.w3.org/1999/xlink" id="twitter" xml:space="preserve" height="41" viewBox="0 0 41 41" width="41" version="1.1" y="82" x="0px" enable-background="new 0 0 41 41"><path d="m30.859 14.075c-0.764 0.338-1.582 0.566-2.441 0.669 0.878-0.526 1.551-1.358 1.869-2.352-0.821 0.487-1.73 0.841-2.699 1.032-0.775-0.826-1.881-1.343-3.104-1.343-2.348 0-4.25 1.903-4.25 4.251 0 0.332 0.037 0.656 0.109 0.968-3.532-0.178-6.665-1.869-8.761-4.441-0.366 0.627-0.576 1.357-0.576 2.137 0 1.475 0.751 2.777 1.892 3.539-0.696-0.023-1.353-0.215-1.926-0.531v0.053c0 2.059 1.466 3.775 3.41 4.167-0.356 0.096-0.732 0.148-1.12 0.148-0.273 0-0.541-0.027-0.801-0.076 0.541 1.688 2.111 2.918 3.972 2.951-1.456 1.141-3.287 1.818-5.279 1.818-0.344 0-0.682-0.021-1.015-0.06 1.882 1.207 4.116 1.91 6.517 1.91 7.817 0 12.093-6.478 12.093-12.093 0-0.186-0.004-0.368-0.012-0.551 0.831-0.595 1.552-1.345 2.122-2.196z" fill="#fff"/></svg></svg>
