<?xml version="1.0"?>
<!--Icons from directory ""-->
<svg xmlns="http://www.w3.org/2000/svg" width="41" height="123" viewBox="0 0 41 123"><svg xmlns:xlink="http://www.w3.org/1999/xlink" id="facebook-inverse" xml:space="preserve" height="41" viewBox="0 0 41 41" width="41" version="1.1" y="0" x="0px" enable-background="new 0 0 41 41"><path d="m0 0v41h41v-41h-41zm24.697 20.506h-2.957v8.493h-3.475v-8.493h-2.265v-2.954h2.264v-2.047c0-1.368 0.651-3.505 3.507-3.505l3.227 0.01v3.003h-2.523c-0.304 0-0.736 0.152-0.736 0.805v1.735h3.261l-0.303 2.953z" fill="#fff"/></svg><svg xmlns:xlink="http://www.w3.org/1999/xlink" id="google-inverse" xml:space="preserve" height="41" viewBox="0 0 41 41" width="41" version="1.1" y="41" x="0px" enable-background="new 0 0 41 41"><g fill="#fff">    <path d="m17.171 18.935c0.001 0 0.001 0 0 0 0.405 0 0.746-0.159 1.01-0.462 0.414-0.471 0.597-1.245 0.489-2.068-0.194-1.471-1.243-2.693-2.34-2.725l-0.044-0.001c-0.388 0-0.733 0.16-0.998 0.461-0.409 0.466-0.581 1.204-0.473 2.025 0.191 1.468 1.264 2.737 2.337 2.77h0.019z"/>    <path d="m18.366 23.366c-0.107-0.074-0.22-0.15-0.335-0.229-0.337-0.103-0.697-0.158-1.064-0.164h-0.045c-1.689 0-3.171 1.024-3.171 2.19 0 1.271 1.27 2.265 2.888 2.265 2.138 0 3.221-0.736 3.221-2.188 0-0.14-0.017-0.28-0.051-0.425-0.143-0.563-0.661-0.917-1.443-1.449z"/>	<path d="m0 0v41h41v-41h-41zm18.679 28.727c-0.632 0.181-1.313 0.273-2.029 0.273-0.796 0-1.563-0.092-2.275-0.273-1.383-0.349-2.406-1.011-2.882-1.863-0.207-0.367-0.311-0.762-0.311-1.17 0-0.418 0.101-0.844 0.298-1.264 0.759-1.615 2.755-2.699 4.967-2.699h0.064c-0.181-0.316-0.268-0.644-0.268-0.989 0-0.17 0.022-0.346 0.068-0.524-2.321-0.054-4.057-1.752-4.057-3.993 0-1.582 1.265-3.123 3.073-3.747 0.541-0.186 1.094-0.282 1.636-0.282h4.962c0.171 0 0.319 0.11 0.372 0.271 0.051 0.16-0.006 0.336-0.145 0.436l-1.108 0.804c-0.066 0.048-0.147 0.074-0.229 0.074h-0.398c0.513 0.615 0.813 1.491 0.813 2.476 0 1.087-0.55 2.116-1.549 2.898-0.774 0.602-0.804 0.767-0.804 1.112 0.008 0.19 0.549 0.806 1.141 1.226 1.382 0.979 1.9 1.939 1.899 3.545 0 1.668-1.272 3.117-3.238 3.689zm11.322-8.118c0 0.215-0.175 0.391-0.39 0.391h-2.82v2.609c0 0.217-0.176 0.391-0.391 0.391h-0.916c-0.217 0-0.392-0.174-0.392-0.391v-2.609h-2.702c-0.214 0-0.39-0.175-0.39-0.391v-1.199c0-0.215 0.176-0.39 0.391-0.39h2.609v-2.63c0-0.215 0.175-0.39 0.391-0.39h1.219c0.214 0 0.39 0.175 0.39 0.39v2.63h2.609c0.216 0 0.391 0.174 0.392 0.389v1.2z"/></g></svg><svg xmlns:xlink="http://www.w3.org/1999/xlink" id="twitter-inverse" xml:space="preserve" height="41" viewBox="0 0 41 41" width="41" version="1.1" y="82" x="0px" enable-background="new 0 0 41 41"><path d="m0 0v41h41v-41h-41zm28.736 16.271c0.009 0.183 0.013 0.365 0.013 0.551 0 5.615-4.276 12.093-12.093 12.093-2.401 0-4.635-0.703-6.517-1.91 0.333 0.039 0.671 0.06 1.015 0.06 1.992 0 3.823-0.676 5.279-1.817-1.861-0.033-3.431-1.263-3.972-2.951 0.26 0.049 0.528 0.076 0.801 0.076 0.388 0 0.764-0.052 1.12-0.147-1.944-0.393-3.41-2.108-3.41-4.167v-0.053c0.573 0.316 1.23 0.508 1.926 0.531-1.141-0.762-1.892-2.064-1.892-3.539 0-0.78 0.21-1.51 0.576-2.137 2.096 2.572 5.229 4.263 8.761 4.441-0.072-0.312-0.109-0.636-0.109-0.968 0-2.348 1.903-4.251 4.25-4.251 1.223 0 2.328 0.517 3.104 1.343 0.969-0.191 1.878-0.545 2.699-1.032-0.318 0.994-0.991 1.826-1.869 2.352 0.859-0.103 1.678-0.331 2.441-0.669-0.57 0.849-1.291 1.599-2.123 2.194z" fill="#fff"/></svg></svg>
